<?xml version="1.0" encoding="UTF-8"?>
<svg id="Layer_2" data-name="Layer 2" xmlns="http://www.w3.org/2000/svg" viewBox="0 0 439.1 180.69">
  <defs>
    <style>
      .cls-1 {
        fill: #f6931c;
        stroke-width: 0px;
      }
    </style>
  </defs>
  <g id="Layer_1-2" data-name="Layer 1">
    <path class="cls-1" d="m186.7,180.69s-37.74-30.74-114.22-15.25c0,0-19.74,5-25.74-6.75,0,0-.75-9,9.75-13.25,0,0,4.25-1,31.74-5.75,0,0,10.25-6.25-6.75-8.5,0,0-41.24,6.75-64.48-6.5,0,0-19.74-8.5-11.75-20.74,0,0,7-7.5,21.24,0,0,0,34.24,21.49,52.24,5.5,0,0,6-8-20.49-22.74C58.24,86.72,0,42.23,0,10.99c0,0,.75-20.49,21.49-5.5,0,0,5.5,0,37.99,58.48,0,0,17.5,30.24,25.74,37.24,0,0,9.62,11.81,12.18,4.44,0,0,.81-5.94-3.19-22.37,0,0-4.31-16.68,5.19-18.18,0,0,14.26-.8,10.44,22.74-.04.25-.08.5-.13.75-4.25,24.31-.62,29.62-.62,29.62,0,0,7.37,7.37,13.5-2.37,0,0,2.37-3.12,3-10.62,0,0,.25-9.62,5.25-16.25,0,0,9.62-4.62,11,8.25,0,0,.75,8.62-3.12,18.62s-4.12,16.87-4.12,16.87c0,0,.75,16,11.62,3.75,0,0,3.21-2.58,3.54-10.16s6-7.66,6-7.66c0,0,5.21-3.04,7.58,11.71,0,0,0,27.37,8.75,30.24,0,0,9.75,7.25,22.12,3.25,0,0,17.75-3,20.87-24.24,0,0,2.37,1.25-3.87-22.24-6.25-23.49,3.37-26.99,3.37-26.99,0,0,5.75-4.38,13.75,10.74,0,0,5.5,8.25,7.37,16.87s4.75,15.12,4.75,15.12c0,0,5.62,11.12,12.75,11.75,7.12.62,10.12-3.12,10.12-3.12,0,0,4.87-6.25,5.25-20.87s2-44.11,2-44.11c0,0-.75-28.74-2.62-34.24,0,0-2.75-8.5,7.5-11.12,0,0,11-1.75,11.25,14.12l1.62,62.98s.87,28.24,15.25,24.87c14.37-3.37,27.12-21.37,27.12-21.37,0,0,41.86-45.49,64.73-56.74,22.87-11.25,29.74,8.75,29.74,8.75,0,0,3,14-19.49,24.12s-35.99,25.87-35.99,25.87c0,0-7.75,10.75,2.12,11.5,0,0,16.5,3.37,32.37-1.25,0,0,18.12-7.25,30.87,3.62,12.75,10.87-8.37,19.49-8.37,19.49,0,0-14.37,7-50.36-4.12l-17.37-5.12s-17.75-.12-9.37,12.87c0,0,1.12,4.62,15.12,8.25s7,15.37,7,15.37c0,0-3.75,9.87-21.24-4.87s-52.49-15.75-52.49-15.75c0,0-19.62-1.62-35.62,10.62-16,12.25-35.49,6-35.49,6,0,0-17.37-1.87-24.7,10.12h-15.41Z"/>
  </g>
</svg>