<?xml version="1.0" encoding="UTF-8"?>
<svg id="Layer_2" data-name="Layer 2" xmlns="http://www.w3.org/2000/svg" viewBox="0 0 316.53 307.51">
  <defs>
    <style>
      .cls-1 {
        fill: #faae3e;
        stroke-width: 0px;
      }
    </style>
  </defs>
  <g id="Layer_1-2" data-name="Layer 1">
    <path class="cls-1" d="m114.73,307.51s-13.12-64.48-31.12-73.48-61.11-46.49-61.11-46.49c0,0-22.49-23.99-6.75-26.62,15.75-2.62,10.12-12,10.12-12,0,0-25.12-28.87-25.87-52.86-.75-23.99,31.49,15.37,31.49,15.37,0,0,17.25,27.37,31.87,56.99,14.62,29.62,23.99-1.5,23.99-1.5,0,0,1.62-17-3.62-27.62-5.25-10.62-34.78-117.89-34.78-117.89,0,0-4.01-16.83,8.41-20.99s15.42,24.16,15.42,24.16l4.5,30.33s6.66,33.82,17.5,6.17c0,0,4.83-49.15,17-50.65s14.33,6.5,14.33,6.5c0,0,4.33,17.5-4.33,43.66l-14.16,87.31s-3.5,41.66,6.83,48.32c0,0,7.83,5.5,17.83-11.83,0,0,14.33-11.83,15.33,10,0,0,1,8.5-12,23.66,0,0-19.16,30.83-7.16,44.49,0,0,16.16,16,28.33-7.16,0,0,5-11,1.83-22.49l-9-38.49s-5.17-13.66,2.33-49.32c0,0,7.83-32.33,23.66-.83,0,0,5.17,4.67,1.17,40.99,0,0-1.33,30.49,7.66,30.83s11-18,11-18c0,0,.33-6.66-3-49.49s6-62.15,6-62.15c0,0,14.33-21.66,22.33,2.83,8,24.49,1.5,51.32,1.5,51.32,0,0-2.83,25.49-8.66,38.66,0,0-10.16,39.32,18.83,6.5,0,0,5.83-13.5,4.33-25.66,0,0,2.33-71.98,16.5-84.48,0,0,14.5-28.49,34.16-34.82,0,0,31.49-11.33,28.99,26.16,0,0-9,47.65-50.49,84.81,0,0-22.83,23.16,7,16.83,0,0,22.49-7.16,10.16,15.66,0,0-9.83,17.33-48.32,26.33,0,0-25.33,7.83-20.16,23.83,0,0,1.5,8.66,32.99-.17l34.82-10.33s37.49-14.16,8.5,14.5c0,0-4.67,9.83-46.49,13.33,0,0-47.15-10.33-77.65,5.5-30.49,15.83-30.49,50.32-30.49,50.32h-21.54Z"/>
  </g>
</svg>