<svg width="193" height="103" viewBox="0 0 193 103" fill="none" xmlns="http://www.w3.org/2000/svg">
<path d="M0 92.5C22 58.5 9.16667 28 0 17C8.69285 17.2898 16.1394 18.2726 22.5 19.7544C31.0821 21.7537 37.6873 24.6613 42.7094 28C54.518 35.8503 57.5745 46.0842 57 52.5C57.4868 65.8048 51.4084 74.9523 42.7094 81.1037C36.7751 85.3001 29.6212 88.1022 22.5 89.8787C14.3255 91.918 6.19412 92.6059 0 92.5Z" fill="#CD0F0F"/>
<path d="M149 21.7317L78 27.0001L86.7295 1.24384C88.0118 1.00422 91.4378 0.775269 97.0162 1.10369C100.095 1.24958 103.464 1.55809 107 2.08279C113.687 3.07519 120.968 4.84095 128 7.74252C135.658 10.9025 143.021 15.4095 149 21.7317Z" fill="#CD0F0F"/>
<path d="M85 83L140 87.0526C135.83 91.4307 130.792 94.6772 125.5 97.0548C119.354 99.8161 112.866 101.405 107 102.234C100.878 103.099 95.4337 103.136 91.7623 102.812L85 83Z" fill="#CD0F0F"/>
<path d="M32 54.4175C57.3333 23.9175 125 -18.7825 193 54.4175C169.5 83.5842 104.4 124.418 32 54.4175Z" fill="#FF1F1F"/>
<circle cx="157" cy="52" r="6" fill="#CD0F0F"/>
<path d="M143.5 33.5C137.167 39.8333 128.3 56.2 143.5 71" stroke="#CD0F0F" stroke-width="3" stroke-linecap="round"/>
</svg>
