<svg width="347" height="392" viewBox="0 0 347 392" fill="none" xmlns="http://www.w3.org/2000/svg">
<g filter="url(#filter0_d_610_108)">
<rect x="13" y="20" width="320" height="364" rx="45" fill="#35A6F6"/>
</g>
<rect x="24" y="34" width="298" height="336" rx="45" fill="#70C3FE"/>
<g filter="url(#filter1_d_610_108)">
<rect x="313" y="78" width="30" height="8.60092" rx="4.30046" fill="#0083E0"/>
<rect x="313" y="84.8807" width="30" height="8.60092" rx="4.30046" fill="#0083E0"/>
</g>
<g filter="url(#filter2_d_610_108)">
<rect x="4" y="78" width="30" height="8.60092" rx="4.30046" fill="#0083E0"/>
<rect x="4" y="84.8807" width="30" height="8.60092" rx="4.30046" fill="#0083E0"/>
</g>
<g filter="url(#filter3_d_610_108)">
<rect x="313" y="304" width="30" height="8.60092" rx="4.30046" fill="#0083E0"/>
<rect x="313" y="310.881" width="30" height="8.60092" rx="4.30046" fill="#0083E0"/>
</g>
<g filter="url(#filter4_d_610_108)">
<rect x="4" y="304" width="30" height="8.60092" rx="4.30046" fill="#0083E0"/>
<rect x="4" y="310.881" width="30" height="8.60092" rx="4.30046" fill="#0083E0"/>
</g>
<g filter="url(#filter5_d_610_108)">
<rect x="48" width="258" height="26.1538" rx="13.0769" fill="#FE4600"/>
<rect x="48" y="13.8461" width="258" height="26.1538" rx="13.0769" fill="#FE4600"/>
</g>
<g filter="url(#filter6_d_610_108)">
<path d="M70.1567 17.667C70.1567 16.8734 70.2578 16.1097 70.46 15.376C70.6696 14.6348 70.9728 13.946 71.3696 13.3096C71.7664 12.6732 72.2531 12.0929 72.8296 11.5688C73.4061 11.0448 74.0612 10.5955 74.7949 10.2212C75.5361 9.84684 76.3522 9.55859 77.2432 9.35645C78.1341 9.14681 79.0924 9.04199 80.1182 9.04199C80.777 9.04199 81.4059 9.08317 82.0049 9.16553C82.6113 9.24788 83.1803 9.36393 83.7119 9.51367C84.2435 9.65592 84.7339 9.82438 85.1831 10.019C85.6398 10.2062 86.0516 10.4046 86.4185 10.6143L85.4526 12.501C85.0334 12.2988 84.5542 12.1304 84.0151 11.9956C83.4836 11.8534 82.9295 11.7822 82.353 11.7822C81.5819 11.7822 80.8669 11.9207 80.208 12.1978C79.5492 12.4748 78.9801 12.8678 78.501 13.377C78.0218 13.8861 77.6437 14.5037 77.3667 15.23C77.0972 15.9487 76.9624 16.7573 76.9624 17.6558C76.9624 18.5467 77.0972 19.3553 77.3667 20.0815C77.6362 20.8003 78.0068 21.418 78.4785 21.9346C78.9577 22.4437 79.5229 22.8405 80.1743 23.125C80.8332 23.402 81.5444 23.5405 82.3081 23.5405C82.8472 23.5405 83.3862 23.4769 83.9253 23.3496C84.4644 23.2148 84.9585 23.0389 85.4077 22.8218L86.3735 24.7085C86.0067 24.9256 85.5986 25.1278 85.1494 25.3149C84.7002 25.5021 84.2135 25.6706 83.6895 25.8203C83.1654 25.9626 82.6038 26.0749 82.0049 26.1572C81.4059 26.2396 80.777 26.2808 80.1182 26.2808C78.5833 26.2808 77.1982 26.0562 75.9629 25.6069C74.735 25.1502 73.6906 24.5326 72.8296 23.7539C71.9686 22.9678 71.306 22.0544 70.8418 21.0137C70.3851 19.9655 70.1567 18.8499 70.1567 17.667ZM87.7212 20.4409C87.7212 19.5575 87.9009 18.7601 88.2603 18.0488C88.6271 17.3376 89.1512 16.7311 89.8325 16.2295C90.5213 15.7279 91.3599 15.3423 92.3481 15.0728C93.3364 14.7957 94.4595 14.6572 95.7173 14.6572C96.9751 14.6572 98.0981 14.7957 99.0864 15.0728C100.075 15.3423 100.91 15.7279 101.591 16.2295C102.28 16.7311 102.804 17.3376 103.163 18.0488C103.53 18.7601 103.713 19.5575 103.713 20.4409C103.713 21.3169 103.53 22.1105 103.163 22.8218C102.804 23.533 102.28 24.1395 101.591 24.6411C100.91 25.1427 100.075 25.5321 99.0864 25.8091C98.0981 26.0786 96.9751 26.2134 95.7173 26.2134C94.4595 26.2134 93.3364 26.0786 92.3481 25.8091C91.3599 25.5321 90.5213 25.1427 89.8325 24.6411C89.1512 24.1395 88.6271 23.533 88.2603 22.8218C87.9009 22.1105 87.7212 21.3169 87.7212 20.4409ZM95.7173 24.1582C95.9943 24.1582 96.2414 24.1021 96.4585 23.9897C96.6756 23.8774 96.8553 23.6828 96.9976 23.4058C97.1398 23.1213 97.2484 22.7394 97.3232 22.2603C97.3981 21.7811 97.4355 21.1746 97.4355 20.4409C97.4355 19.6997 97.3981 19.0895 97.3232 18.6104C97.2484 18.1312 97.1398 17.7531 96.9976 17.4761C96.8553 17.1916 96.6756 16.9932 96.4585 16.8809C96.2414 16.7686 95.9943 16.7124 95.7173 16.7124C95.4328 16.7124 95.182 16.7686 94.9648 16.8809C94.7552 16.9932 94.5793 17.1916 94.437 17.4761C94.2948 17.7531 94.1862 18.1312 94.1113 18.6104C94.0365 19.0895 93.999 19.6997 93.999 20.4409C93.999 21.1746 94.0365 21.7811 94.1113 22.2603C94.1862 22.7394 94.2948 23.1213 94.437 23.4058C94.5793 23.6828 94.7552 23.8774 94.9648 23.9897C95.182 24.1021 95.4328 24.1582 95.7173 24.1582ZM106.128 14.8706H111.507L112.046 16.4878C112.84 15.8813 113.645 15.4246 114.461 15.1177C115.285 14.8107 116.149 14.6572 117.055 14.6572C117.572 14.6572 118.051 14.7433 118.493 14.9155C118.942 15.0877 119.331 15.3535 119.661 15.7129C119.99 16.0723 120.248 16.5365 120.436 17.1055C120.623 17.667 120.716 18.3408 120.716 19.127V26H114.618V18.7451C114.618 18.3558 114.532 18.0713 114.36 17.8916C114.188 17.7119 113.937 17.6221 113.607 17.6221C113.39 17.6221 113.151 17.667 112.889 17.7568C112.627 17.8467 112.406 17.9889 112.226 18.1836V26H106.128V14.8706ZM123.558 25.0005C123.558 24.4315 123.7 23.8812 123.984 23.3496C124.269 22.818 124.666 22.3389 125.175 21.9121C124.471 21.5303 123.936 21.0736 123.569 20.542C123.209 20.0029 123.03 19.3965 123.03 18.7227C123.03 18.0863 123.194 17.5173 123.524 17.0156C123.861 16.5065 124.344 16.0798 124.973 15.7354C125.602 15.3835 126.373 15.1177 127.286 14.938C128.2 14.7508 129.236 14.6572 130.397 14.6572C130.794 14.6572 131.179 14.6685 131.554 14.6909V13.2422C131.554 12.7256 131.621 12.2502 131.756 11.8159C131.898 11.3817 132.108 11.0073 132.385 10.6929C132.662 10.3784 133.01 10.1351 133.429 9.96289C133.856 9.7832 134.354 9.69336 134.923 9.69336C135.447 9.69336 135.915 9.76823 136.327 9.91797C136.746 10.0602 137.098 10.2586 137.382 10.5132C137.674 10.7603 137.895 11.0522 138.045 11.3892C138.195 11.7261 138.27 12.0817 138.27 12.4561C138.27 12.8229 138.202 13.1561 138.067 13.4556C137.94 13.755 137.772 14.0133 137.562 14.2305C137.352 14.4476 137.12 14.616 136.866 14.7358C136.619 14.8556 136.372 14.9155 136.125 14.9155L133.497 11.3779L133.485 11.3892L133.463 14.9268C134.848 15.1963 135.911 15.6567 136.652 16.3081C137.394 16.952 137.764 17.7568 137.764 18.7227C137.764 19.359 137.596 19.9393 137.259 20.4634C136.929 20.98 136.45 21.4255 135.821 21.7998C135.192 22.1667 134.421 22.4512 133.508 22.6533C132.594 22.8555 131.557 22.9565 130.397 22.9565C129.581 22.9565 128.825 22.9079 128.128 22.8105C127.44 22.7132 126.814 22.5672 126.253 22.3726C126.193 22.5148 126.163 22.6795 126.163 22.8667C126.163 23.0614 126.212 23.2373 126.309 23.3945C126.414 23.5443 126.616 23.6715 126.916 23.7764C127.222 23.8812 127.649 23.9598 128.196 24.0122C128.75 24.0646 129.472 24.0908 130.363 24.0908H133.283C134.167 24.0908 134.923 24.1807 135.552 24.3604C136.188 24.5326 136.708 24.7721 137.113 25.0791C137.525 25.3861 137.824 25.7417 138.011 26.146C138.206 26.5578 138.303 26.992 138.303 27.4487C138.303 28.0477 138.146 28.598 137.832 29.0996C137.517 29.6012 137.038 30.0317 136.394 30.3911C135.758 30.758 134.953 31.0425 133.979 31.2446C133.006 31.4468 131.861 31.5479 130.543 31.5479C129.794 31.5479 129.068 31.5142 128.364 31.4468C127.668 31.3869 127.013 31.297 126.399 31.1772C125.785 31.0649 125.22 30.9264 124.703 30.7617C124.187 30.6045 123.734 30.4323 123.344 30.2451L124.254 28.5493C124.726 28.7664 125.197 28.9461 125.669 29.0884C126.141 29.2381 126.62 29.3579 127.106 29.4478C127.593 29.5376 128.091 29.6012 128.6 29.6387C129.117 29.6761 129.652 29.6948 130.206 29.6948C130.835 29.6948 131.34 29.6686 131.722 29.6162C132.111 29.5638 132.407 29.4964 132.609 29.4141C132.819 29.3317 132.958 29.2344 133.025 29.1221C133.1 29.0173 133.137 28.9087 133.137 28.7964C133.137 28.6017 133.029 28.4408 132.812 28.3135C132.602 28.1937 132.265 28.13 131.801 28.1226L128.286 28.0889C127.485 28.0814 126.788 27.999 126.197 27.8418C125.605 27.6921 125.111 27.4787 124.714 27.2017C124.325 26.9321 124.033 26.6102 123.838 26.2358C123.651 25.8615 123.558 25.4497 123.558 25.0005ZM130.397 20.9126C130.569 20.9126 130.723 20.8789 130.857 20.8115C130.992 20.7441 131.104 20.6281 131.194 20.4634C131.292 20.2987 131.363 20.0778 131.408 19.8008C131.46 19.5163 131.486 19.1606 131.486 18.7339C131.486 18.3371 131.464 18.0076 131.419 17.7456C131.374 17.4836 131.307 17.2777 131.217 17.1279C131.127 16.9707 131.011 16.8621 130.869 16.8022C130.734 16.7424 130.577 16.7124 130.397 16.7124C130.217 16.7124 130.056 16.7424 129.914 16.8022C129.779 16.8621 129.667 16.9707 129.577 17.1279C129.487 17.2777 129.42 17.4836 129.375 17.7456C129.33 18.0076 129.308 18.3408 129.308 18.7451C129.308 19.1644 129.33 19.5163 129.375 19.8008C129.427 20.0778 129.499 20.2987 129.588 20.4634C129.686 20.6281 129.802 20.7441 129.937 20.8115C130.071 20.8789 130.225 20.9126 130.397 20.9126ZM140.448 14.8706H145.828L146.367 16.4878C146.793 16.1733 147.194 15.9038 147.568 15.6792C147.95 15.4471 148.317 15.2562 148.669 15.1064C149.028 14.9492 149.373 14.8369 149.702 14.7695C150.039 14.6947 150.372 14.6572 150.702 14.6572C151.181 14.6572 151.611 14.7246 151.993 14.8594C152.382 14.9941 152.712 15.1851 152.981 15.4321C153.258 15.6792 153.468 15.9749 153.61 16.3193C153.76 16.6562 153.835 17.0306 153.835 17.4424C153.835 17.8542 153.745 18.2323 153.565 18.5767C153.393 18.9211 153.139 19.2205 152.802 19.4751C152.465 19.7222 152.049 19.9168 151.555 20.0591C151.069 20.1938 150.511 20.2612 149.882 20.2612L147.905 17.6221C147.688 17.6221 147.452 17.667 147.198 17.7568C146.943 17.8467 146.726 17.9889 146.546 18.1836V26H140.448V14.8706ZM154.857 22.4961C154.857 21.957 154.977 21.4554 155.216 20.9912C155.456 20.527 155.8 20.1227 156.25 19.7783C156.699 19.4339 157.242 19.1644 157.878 18.9697C158.514 18.7676 159.226 18.6665 160.012 18.6665C160.798 18.6665 161.532 18.7601 162.213 18.9473C162.902 19.127 163.478 19.359 163.942 19.6436V19.5537C163.942 19.0296 163.882 18.5841 163.763 18.2173C163.65 17.8504 163.474 17.5509 163.235 17.3188C162.995 17.0868 162.688 16.9183 162.314 16.8135C161.947 16.7087 161.513 16.6562 161.011 16.6562C160.555 16.6562 160.083 16.6974 159.596 16.7798C159.11 16.8547 158.66 16.967 158.249 17.1167L157.429 15.6006C158.245 15.2637 159.087 15.0241 159.956 14.8818C160.832 14.7321 161.734 14.6572 162.662 14.6572C163.853 14.6572 164.904 14.7733 165.818 15.0054C166.739 15.23 167.51 15.5706 168.131 16.0273C168.76 16.4766 169.236 17.0456 169.558 17.7344C169.88 18.4157 170.041 19.2168 170.041 20.1377V26H164.347L163.965 24.9219C163.74 25.0941 163.474 25.2588 163.167 25.416C162.861 25.5732 162.524 25.7118 162.157 25.8315C161.79 25.9513 161.401 26.0449 160.989 26.1123C160.577 26.1797 160.146 26.2134 159.697 26.2134C158.964 26.2134 158.297 26.1198 157.698 25.9326C157.107 25.738 156.601 25.4759 156.182 25.1465C155.763 24.8171 155.437 24.4277 155.205 23.9785C154.973 23.5218 154.857 23.0277 154.857 22.4961ZM161.146 22.2603C161.146 22.6646 161.277 22.994 161.539 23.2485C161.801 23.4956 162.153 23.6191 162.595 23.6191C162.834 23.6191 163.07 23.5817 163.302 23.5068C163.534 23.4245 163.748 23.3047 163.942 23.1475V21.2495C163.568 21.0249 163.156 20.9126 162.707 20.9126C162.198 20.9126 161.809 21.0399 161.539 21.2944C161.277 21.5415 161.146 21.8634 161.146 22.2603ZM173.724 16.7236H172.466V14.8706H173.724V11.1646H179.822V14.8706H182.753L181.608 16.7236H179.822V21.7661C179.822 22.5298 179.991 23.1175 180.328 23.5293C180.672 23.9411 181.162 24.147 181.799 24.147L181.103 25.6855C180.713 25.8503 180.298 25.9775 179.856 26.0674C179.422 26.1647 178.916 26.2134 178.34 26.2134C177.531 26.2134 176.835 26.1123 176.251 25.9102C175.667 25.7005 175.188 25.4048 174.813 25.0229C174.439 24.6411 174.162 24.1732 173.982 23.6191C173.81 23.0651 173.724 22.4399 173.724 21.7437V16.7236ZM184.449 14.8594H190.547V21.665C190.547 21.9645 190.574 22.2153 190.626 22.4175C190.678 22.6196 190.757 22.7843 190.862 22.9116C190.974 23.0314 191.109 23.1213 191.266 23.1812C191.423 23.2336 191.611 23.2598 191.828 23.2598C192.097 23.2598 192.333 23.2186 192.535 23.1362C192.737 23.0464 192.943 22.8929 193.153 22.6758V14.8594H199.251V25.9888H193.872L193.333 24.3716C192.651 25.0379 191.914 25.5133 191.12 25.7979C190.326 26.0749 189.518 26.2134 188.694 26.2134C187.339 26.2134 186.291 25.8503 185.55 25.124C184.816 24.3903 184.449 23.2635 184.449 21.7437V14.8594ZM202.396 7.4585H208.494V26H202.396V7.4585ZM210.919 22.4961C210.919 21.957 211.039 21.4554 211.279 20.9912C211.518 20.527 211.863 20.1227 212.312 19.7783C212.761 19.4339 213.304 19.1644 213.94 18.9697C214.577 18.7676 215.288 18.6665 216.074 18.6665C216.86 18.6665 217.594 18.7601 218.275 18.9473C218.964 19.127 219.541 19.359 220.005 19.6436V19.5537C220.005 19.0296 219.945 18.5841 219.825 18.2173C219.713 17.8504 219.537 17.5509 219.297 17.3188C219.058 17.0868 218.751 16.9183 218.376 16.8135C218.01 16.7087 217.575 16.6562 217.074 16.6562C216.617 16.6562 216.145 16.6974 215.659 16.7798C215.172 16.8547 214.723 16.967 214.311 17.1167L213.491 15.6006C214.307 15.2637 215.15 15.0241 216.018 14.8818C216.894 14.7321 217.796 14.6572 218.725 14.6572C219.915 14.6572 220.967 14.7733 221.88 15.0054C222.801 15.23 223.572 15.5706 224.194 16.0273C224.823 16.4766 225.298 17.0456 225.62 17.7344C225.942 18.4157 226.103 19.2168 226.103 20.1377V26H220.409L220.027 24.9219C219.803 25.0941 219.537 25.2588 219.23 25.416C218.923 25.5732 218.586 25.7118 218.219 25.8315C217.852 25.9513 217.463 26.0449 217.051 26.1123C216.639 26.1797 216.209 26.2134 215.76 26.2134C215.026 26.2134 214.36 26.1198 213.761 25.9326C213.169 25.738 212.664 25.4759 212.245 25.1465C211.825 24.8171 211.5 24.4277 211.268 23.9785C211.035 23.5218 210.919 23.0277 210.919 22.4961ZM217.208 22.2603C217.208 22.6646 217.34 22.994 217.602 23.2485C217.864 23.4956 218.215 23.6191 218.657 23.6191C218.897 23.6191 219.133 23.5817 219.365 23.5068C219.597 23.4245 219.81 23.3047 220.005 23.1475V21.2495C219.631 21.0249 219.219 20.9126 218.77 20.9126C218.26 20.9126 217.871 21.0399 217.602 21.2944C217.34 21.5415 217.208 21.8634 217.208 22.2603ZM229.787 16.7236H228.529V14.8706H229.787V11.1646H235.885V14.8706H238.816L237.67 16.7236H235.885V21.7661C235.885 22.5298 236.053 23.1175 236.39 23.5293C236.735 23.9411 237.225 24.147 237.861 24.147L237.165 25.6855C236.776 25.8503 236.36 25.9775 235.918 26.0674C235.484 26.1647 234.979 26.2134 234.402 26.2134C233.594 26.2134 232.897 26.1123 232.313 25.9102C231.729 25.7005 231.25 25.4048 230.876 25.0229C230.502 24.6411 230.225 24.1732 230.045 23.6191C229.873 23.0651 229.787 22.4399 229.787 21.7437V16.7236ZM243.667 13.0176C243.113 13.0176 242.634 12.9577 242.23 12.8379C241.833 12.7181 241.507 12.5534 241.253 12.3438C240.998 12.1266 240.811 11.8796 240.691 11.6025C240.572 11.318 240.512 11.0111 240.512 10.6816C240.512 10.3597 240.572 10.0565 240.691 9.77197C240.811 9.48747 240.998 9.2404 241.253 9.03076C241.507 8.81364 241.833 8.64518 242.23 8.52539C242.634 8.4056 243.113 8.3457 243.667 8.3457C244.229 8.3457 244.708 8.4056 245.105 8.52539C245.502 8.64518 245.827 8.81364 246.082 9.03076C246.344 9.2404 246.535 9.48747 246.655 9.77197C246.775 10.0565 246.834 10.3597 246.834 10.6816C246.834 11.0111 246.775 11.318 246.655 11.6025C246.535 11.8796 246.344 12.1266 246.082 12.3438C245.827 12.5534 245.502 12.7181 245.105 12.8379C244.708 12.9577 244.229 13.0176 243.667 13.0176ZM240.624 14.8706H246.722V26H240.624V14.8706ZM249.148 20.4409C249.148 19.5575 249.328 18.7601 249.687 18.0488C250.054 17.3376 250.578 16.7311 251.259 16.2295C251.948 15.7279 252.787 15.3423 253.775 15.0728C254.763 14.7957 255.886 14.6572 257.144 14.6572C258.402 14.6572 259.525 14.7957 260.513 15.0728C261.501 15.3423 262.336 15.7279 263.018 16.2295C263.706 16.7311 264.23 17.3376 264.59 18.0488C264.957 18.7601 265.14 19.5575 265.14 20.4409C265.14 21.3169 264.957 22.1105 264.59 22.8218C264.23 23.533 263.706 24.1395 263.018 24.6411C262.336 25.1427 261.501 25.5321 260.513 25.8091C259.525 26.0786 258.402 26.2134 257.144 26.2134C255.886 26.2134 254.763 26.0786 253.775 25.8091C252.787 25.5321 251.948 25.1427 251.259 24.6411C250.578 24.1395 250.054 23.533 249.687 22.8218C249.328 22.1105 249.148 21.3169 249.148 20.4409ZM257.144 24.1582C257.421 24.1582 257.668 24.1021 257.885 23.9897C258.102 23.8774 258.282 23.6828 258.424 23.4058C258.567 23.1213 258.675 22.7394 258.75 22.2603C258.825 21.7811 258.862 21.1746 258.862 20.4409C258.862 19.6997 258.825 19.0895 258.75 18.6104C258.675 18.1312 258.567 17.7531 258.424 17.4761C258.282 17.1916 258.102 16.9932 257.885 16.8809C257.668 16.7686 257.421 16.7124 257.144 16.7124C256.86 16.7124 256.609 16.7686 256.392 16.8809C256.182 16.9932 256.006 17.1916 255.864 17.4761C255.722 17.7531 255.613 18.1312 255.538 18.6104C255.463 19.0895 255.426 19.6997 255.426 20.4409C255.426 21.1746 255.463 21.7811 255.538 22.2603C255.613 22.7394 255.722 23.1213 255.864 23.4058C256.006 23.6828 256.182 23.8774 256.392 23.9897C256.609 24.1021 256.86 24.1582 257.144 24.1582ZM267.555 14.8706H272.934L273.473 16.4878C274.267 15.8813 275.072 15.4246 275.888 15.1177C276.711 14.8107 277.576 14.6572 278.482 14.6572C278.999 14.6572 279.478 14.7433 279.919 14.9155C280.369 15.0877 280.758 15.3535 281.087 15.7129C281.417 16.0723 281.675 16.5365 281.862 17.1055C282.049 17.667 282.143 18.3408 282.143 19.127V26H276.045V18.7451C276.045 18.3558 275.959 18.0713 275.787 17.8916C275.614 17.7119 275.364 17.6221 275.034 17.6221C274.817 17.6221 274.577 17.667 274.315 17.7568C274.053 17.8467 273.833 17.9889 273.653 18.1836V26H267.555V14.8706Z" fill="#F0F8FA"/>
</g>
<defs>
<filter id="filter0_d_610_108" x="9" y="20" width="328" height="372" filterUnits="userSpaceOnUse" color-interpolation-filters="sRGB">
<feFlood flood-opacity="0" result="BackgroundImageFix"/>
<feColorMatrix in="SourceAlpha" type="matrix" values="0 0 0 0 0 0 0 0 0 0 0 0 0 0 0 0 0 0 127 0" result="hardAlpha"/>
<feOffset dy="4"/>
<feGaussianBlur stdDeviation="2"/>
<feComposite in2="hardAlpha" operator="out"/>
<feColorMatrix type="matrix" values="0 0 0 0 0 0 0 0 0 0 0 0 0 0 0 0 0 0 0.25 0"/>
<feBlend mode="normal" in2="BackgroundImageFix" result="effect1_dropShadow_610_108"/>
<feBlend mode="normal" in="SourceGraphic" in2="effect1_dropShadow_610_108" result="shape"/>
</filter>
<filter id="filter1_d_610_108" x="309" y="78" width="38" height="23.4816" filterUnits="userSpaceOnUse" color-interpolation-filters="sRGB">
<feFlood flood-opacity="0" result="BackgroundImageFix"/>
<feColorMatrix in="SourceAlpha" type="matrix" values="0 0 0 0 0 0 0 0 0 0 0 0 0 0 0 0 0 0 127 0" result="hardAlpha"/>
<feOffset dy="4"/>
<feGaussianBlur stdDeviation="2"/>
<feComposite in2="hardAlpha" operator="out"/>
<feColorMatrix type="matrix" values="0 0 0 0 0 0 0 0 0 0 0 0 0 0 0 0 0 0 0.25 0"/>
<feBlend mode="normal" in2="BackgroundImageFix" result="effect1_dropShadow_610_108"/>
<feBlend mode="normal" in="SourceGraphic" in2="effect1_dropShadow_610_108" result="shape"/>
</filter>
<filter id="filter2_d_610_108" x="0" y="78" width="38" height="23.4816" filterUnits="userSpaceOnUse" color-interpolation-filters="sRGB">
<feFlood flood-opacity="0" result="BackgroundImageFix"/>
<feColorMatrix in="SourceAlpha" type="matrix" values="0 0 0 0 0 0 0 0 0 0 0 0 0 0 0 0 0 0 127 0" result="hardAlpha"/>
<feOffset dy="4"/>
<feGaussianBlur stdDeviation="2"/>
<feComposite in2="hardAlpha" operator="out"/>
<feColorMatrix type="matrix" values="0 0 0 0 0 0 0 0 0 0 0 0 0 0 0 0 0 0 0.25 0"/>
<feBlend mode="normal" in2="BackgroundImageFix" result="effect1_dropShadow_610_108"/>
<feBlend mode="normal" in="SourceGraphic" in2="effect1_dropShadow_610_108" result="shape"/>
</filter>
<filter id="filter3_d_610_108" x="309" y="304" width="38" height="23.4816" filterUnits="userSpaceOnUse" color-interpolation-filters="sRGB">
<feFlood flood-opacity="0" result="BackgroundImageFix"/>
<feColorMatrix in="SourceAlpha" type="matrix" values="0 0 0 0 0 0 0 0 0 0 0 0 0 0 0 0 0 0 127 0" result="hardAlpha"/>
<feOffset dy="4"/>
<feGaussianBlur stdDeviation="2"/>
<feComposite in2="hardAlpha" operator="out"/>
<feColorMatrix type="matrix" values="0 0 0 0 0 0 0 0 0 0 0 0 0 0 0 0 0 0 0.25 0"/>
<feBlend mode="normal" in2="BackgroundImageFix" result="effect1_dropShadow_610_108"/>
<feBlend mode="normal" in="SourceGraphic" in2="effect1_dropShadow_610_108" result="shape"/>
</filter>
<filter id="filter4_d_610_108" x="0" y="304" width="38" height="23.4816" filterUnits="userSpaceOnUse" color-interpolation-filters="sRGB">
<feFlood flood-opacity="0" result="BackgroundImageFix"/>
<feColorMatrix in="SourceAlpha" type="matrix" values="0 0 0 0 0 0 0 0 0 0 0 0 0 0 0 0 0 0 127 0" result="hardAlpha"/>
<feOffset dy="4"/>
<feGaussianBlur stdDeviation="2"/>
<feComposite in2="hardAlpha" operator="out"/>
<feColorMatrix type="matrix" values="0 0 0 0 0 0 0 0 0 0 0 0 0 0 0 0 0 0 0.25 0"/>
<feBlend mode="normal" in2="BackgroundImageFix" result="effect1_dropShadow_610_108"/>
<feBlend mode="normal" in="SourceGraphic" in2="effect1_dropShadow_610_108" result="shape"/>
</filter>
<filter id="filter5_d_610_108" x="44" y="0" width="266" height="47.9999" filterUnits="userSpaceOnUse" color-interpolation-filters="sRGB">
<feFlood flood-opacity="0" result="BackgroundImageFix"/>
<feColorMatrix in="SourceAlpha" type="matrix" values="0 0 0 0 0 0 0 0 0 0 0 0 0 0 0 0 0 0 127 0" result="hardAlpha"/>
<feOffset dy="4"/>
<feGaussianBlur stdDeviation="2"/>
<feComposite in2="hardAlpha" operator="out"/>
<feColorMatrix type="matrix" values="0 0 0 0 0 0 0 0 0 0 0 0 0 0 0 0 0 0 0.25 0"/>
<feBlend mode="normal" in2="BackgroundImageFix" result="effect1_dropShadow_610_108"/>
<feBlend mode="normal" in="SourceGraphic" in2="effect1_dropShadow_610_108" result="shape"/>
</filter>
<filter id="filter6_d_610_108" x="66.1567" y="7.4585" width="219.986" height="32.0894" filterUnits="userSpaceOnUse" color-interpolation-filters="sRGB">
<feFlood flood-opacity="0" result="BackgroundImageFix"/>
<feColorMatrix in="SourceAlpha" type="matrix" values="0 0 0 0 0 0 0 0 0 0 0 0 0 0 0 0 0 0 127 0" result="hardAlpha"/>
<feOffset dy="4"/>
<feGaussianBlur stdDeviation="2"/>
<feComposite in2="hardAlpha" operator="out"/>
<feColorMatrix type="matrix" values="0 0 0 0 0 0 0 0 0 0 0 0 0 0 0 0 0 0 0.25 0"/>
<feBlend mode="normal" in2="BackgroundImageFix" result="effect1_dropShadow_610_108"/>
<feBlend mode="normal" in="SourceGraphic" in2="effect1_dropShadow_610_108" result="shape"/>
</filter>
</defs>
</svg>
