<svg width="193" height="102" viewBox="0 0 193 102" fill="none" xmlns="http://www.w3.org/2000/svg">
<path d="M0 91.5C22 57.5 9.16667 27 0 16C48 17.6 58 40.3333 57 51.5C58.2 84.3 19.5 91.8333 0 91.5Z" fill="#CD0F0F"/>
<path d="M149 20.7317C130.843 1.53159 99.9208 -0.926957 86.7295 0.243779L78 26L149 20.7317Z" fill="#CD0F0F"/>
<path d="M140 86.0526C125.934 100.822 101.981 102.713 91.7623 101.812L85 82L140 86.0526Z" fill="#CD0F0F"/>
<path d="M32 53.4175C57.3333 22.9175 125 -19.7825 193 53.4175C169.5 82.5842 104.4 123.418 32 53.4175Z" fill="#FF1F1F"/>
<circle cx="157" cy="51" r="6" fill="#CD0F0F"/>
<path d="M143.5 32.5C137.167 38.8333 128.3 55.2 143.5 70" stroke="#CD0F0F" stroke-width="3" stroke-linecap="round"/>
</svg>
