<svg width="14" height="26" viewBox="0 0 14 26" fill="none" xmlns="http://www.w3.org/2000/svg">
<path d="M4.27152 0.379808C6.3076 -1.19085 8.86719 2.5322 6.30756 3.87017C6.72638 4.28901 10.4378 10.211 12.2412 13.1196C14.9753 18.8787 12.5321 22.8926 10.2633 24.4633C3.63165 28.2445 0.490328 24.1724 0.0249643 21.6128C-0.207745 18.9369 1.24659 17.1141 1.88649 16.0282C0.664845 20.3912 1.49867 22.6987 2.11918 23.2998C3.86436 26.1503 8.98354 24.7488 11.3686 21.6128C13.8817 18.3086 10.8257 12.4797 8.98354 9.97829L4.96963 4.74276C2.29369 2.64854 3.41834 1.0391 4.27152 0.379808Z" fill="black"/>
<circle cx="1.16345" cy="1.16345" r="1.16345" transform="matrix(-1 0 0 1 6.48218 0.961548)" fill="#D9D9D9"/>
</svg>
