<svg width="20" height="144" viewBox="0 0 20 144" fill="none" xmlns="http://www.w3.org/2000/svg">
<path d="M1.26756 48.5C1.26756 14.5 7.26756 2.66667 10.2676 1C17.4676 1 19.2676 32.6667 19.2676 48.5V92C19.2676 131.6 16.7676 143 10.2676 143C1.06756 143 0.434231 109 1.26756 92V48.5Z" fill="#0E7D36"/>
<path d="M10.2676 1C7.26756 2.66667 1.26756 14.5 1.26756 48.5V92C0.434231 109 1.06756 143 10.2676 143M10.2676 1C17.4676 1 19.2676 32.6667 19.2676 48.5V92C19.2676 131.6 16.7676 143 10.2676 143M10.2676 1V143" stroke="white" stroke-width="0.2"/>
</svg>
