<svg width="32" height="107" viewBox="0 0 32 107" fill="none" xmlns="http://www.w3.org/2000/svg">
<path d="M29.7594 106L15.7594 87.5C12.926 83.6667 7.75937 73.7 9.75937 64.5C10.2593 59.1667 10.2593 48.1 6.25926 46.5C2.92593 42.5 -2.24074 32.9 3.75926 26.5C6.09259 23.5 9.35925 14.2 3.75926 1C8.75923 2.16667 18.4592 7.6 17.2593 20C15.4259 23.6667 13.1593 32.8 18.7593 40C21.2593 43.8333 25.0593 53.8 20.2593 63C18.9259 68.1667 17.7593 80.6 23.7593 89L31.2593 106H29.7594Z" fill="#0E7D36"/>
<path d="M3.75926 1C9.35924 14.2 6.09259 23.5 3.75926 26.5C-2.24074 32.9 2.92593 42.5 6.25926 46.5C10.2593 48.1 10.2593 59.1667 9.75937 64.5C7.75937 73.7 12.926 83.6667 15.7594 87.5L29.7594 106H31.2593M3.75926 1C8.75923 2.16667 18.4592 7.6 17.2593 20C15.4259 23.6667 13.1593 32.8 18.7593 40C21.2593 43.8333 25.0593 53.8 20.2593 63C18.9259 68.1667 17.7593 80.6 23.7593 89L31.2593 106M3.75926 1C8.17909 3.83333 15.5669 13.2 9.75937 28C9.06495 32.3333 9.14088 41.9 15 45.5C16.7469 47.832 19.1925 54.5967 15 63C13.8395 66.6559 12.9667 76.6742 18.7593 87.5L31.2593 106" stroke="white" stroke-width="0.2"/>
</svg>
