<svg width="57" height="86" viewBox="0 0 57 86" fill="none" xmlns="http://www.w3.org/2000/svg">
<path d="M1 85C1.5 77.8333 4.6 61.7 13 54.5C16.6667 52.8333 24.2 46.1 25 32.5C26 22.3333 33.6 1.8 56 1C50.5 7.33333 39.8 22.5 41 32.5C41.3333 38.3333 39.1 52.5 27.5 62.5C20.5 64.5 5.4 71.8 1 85Z" fill="#0E7D36"/>
<path d="M1 85C1.5 77.8333 4.6 61.7 13 54.5C16.6667 52.8333 24.2 46.1 25 32.5C26 22.3333 33.6 1.8 56 1M1 85C5.4 71.8 20.5 64.5 27.5 62.5C39.1 52.5 41.3333 38.3333 41 32.5C39.8 22.5 50.5 7.33333 56 1M1 85C3.4 71.8 14.3333 61.5 19.5 58C29.9 53.5849 33.1667 39.1604 33.5 32.5C29.7937 20.5 46.9557 6.5 56 1" stroke="white" stroke-width="0.2"/>
</svg>
