<svg width="28" height="121" viewBox="0 0 28 121" fill="none" xmlns="http://www.w3.org/2000/svg">
<path d="M7.71511 120.5C3.71511 110.833 -2.68489 87.9 3.71511 73.5C7.71511 65.8333 14.1151 47.7 7.71511 36.5C4.2151 27.6667 1.51509 8.2 18.7151 1C16.5484 8.33333 14.6151 25.4 24.2151 35C27.2151 40.6667 31.0151 56.3 22.2151 73.5C17.3818 79.5 7.71511 97.3 7.71511 120.5Z" fill="#0E7D36"/>
<path d="M7.71511 120.5C3.71511 110.833 -2.68489 87.9 3.71511 73.5C7.71511 65.8333 14.1151 47.7 7.71511 36.5C4.2151 27.6667 1.51509 8.2 18.7151 1M7.71511 120.5C7.71511 97.3 17.3818 79.5 22.2151 73.5C31.0151 56.3 27.2151 40.6667 24.2151 35C14.6151 25.4 16.5484 8.33333 18.7151 1M7.71511 120.5C5.08719 92.1 10.4767 77.3333 13.5 73.5C23.3337 57.5 19.5974 43.1667 16.5 38C6.5 20.4 13.8101 6 18.7151 1" stroke="white" stroke-width="0.2"/>
</svg>
