<svg width="63" height="76" viewBox="0 0 63 76" fill="none" xmlns="http://www.w3.org/2000/svg">
<path d="M56.1041 70.3745C50.7781 66.1997 43.3353 61.4226 36.0001 59.5209C30.1668 57.0209 18.6001 50.0209 19.0001 42.0209C19.5001 32.0209 20.5 11.0209 1 1.02085C8.66667 0.687519 25.3 4.22085 30.5 21.0209C31.8333 30.8542 36.3 51.4209 43.5 55.0209L62.0001 75.5209L56.1041 70.3745Z" fill="#0E7D36"/>
<path d="M62.0001 75.5209C57.8334 71.3542 46.8001 62.3209 36.0001 59.5209C30.1668 57.0209 18.6001 50.0209 19.0001 42.0209C19.5001 32.0209 20.5 11.0209 1 1.02085M62.0001 75.5209L43.5 55.0209C36.3 51.4209 31.8333 30.8542 30.5 21.0209C25.3 4.22085 8.66667 0.687519 1 1.02085M62.0001 75.5209L42.5 58.5C31.3 52.9 27.5 46.1667 27 43.5L23.5 21.0209C22.7 9.43753 8.16667 2.86114 1 1.02085" stroke="white" stroke-width="0.2"/>
</svg>
