<svg width="207" height="118" viewBox="0 0 207 118" fill="none" xmlns="http://www.w3.org/2000/svg">
<path d="M121 108C125.745 112.395 128.77 113.438 134.5 114C145.191 114.617 151.455 108.643 153 103.5C155.092 98.1232 153.669 93.6106 149 84L120 108H121Z" fill="black" stroke="black"/>
<path d="M49 25.5C50.6971 8.83773 67.5645 0.978909 71.529 1.00004C75.4935 1.02118 90.1526 4.39183 103.07 13C111.72 15.3318 129.103 11.0001 135.611 11C142.12 11 158.648 28.1405 155.637 44C115.156 15.1597 91.8569 10.1635 49 25.5Z" fill="black" stroke="black"/>
<path d="M1.00477 71.3766C0.507713 55.0964 38.9258 24.1216 73.0048 16.3766C105.419 13.9555 124.1 23.1415 162.005 45.8766C181.836 22.2621 191.947 13.4002 201.505 34.3766L205.505 75.8766C201.222 94.2005 188.554 89.6653 162.005 75.8766C132.048 102.096 119.577 114.661 82.5048 116.377C44.7576 122.588 1.50183 87.6567 1.00477 71.3766Z" fill="black" stroke="black"/>
<path d="M74.5 63.609L71 76.109C74.328 80.9866 77.207 84.5526 79.8774 87.1089C110.282 82.4155 107.536 72.236 97.4676 52.109C89.3583 52.7132 83.4367 55.9072 74.5 63.609Z" fill="black"/>
<path d="M99.5 92.109C118.646 72.5748 118.562 64.0585 104 52.109C101.634 51.9686 99.4833 51.9588 97.4676 52.109C107.536 72.236 110.282 82.4155 79.8774 87.1089C86.4834 93.4328 91.812 93.5768 99.5 92.109Z" fill="black"/>
<path d="M97.4676 52.109C89.3583 52.7132 83.4367 55.9072 74.5 63.609L71 76.109C74.328 80.9866 77.207 84.5526 79.8774 87.1089M97.4676 52.109C99.4833 51.9588 101.634 51.9686 104 52.109C118.562 64.0585 118.646 72.5748 99.5 92.109C91.812 93.5768 86.4834 93.4328 79.8774 87.1089M97.4676 52.109C107.536 72.236 110.282 82.4155 79.8774 87.1089" stroke="black"/>
<path d="M102.135 18C105.563 32.4224 104.363 39.7175 97.8077 51.5998C119.101 58.919 110.951 87.9315 93 93.2234C94.1895 94.4147 100.459 110.756 102.135 112.781C103.81 114.807 133.482 102.118 131.942 100.746C130.454 99.4194 121.22 71.9119 120.887 71.1404C120.886 71.1462 120.885 71.152 120.884 71.1579C120.874 71.1189 120.875 71.1138 120.887 71.1404C123.507 49.9359 133.185 42.9941 126.173 27.0268C117.23 20.9127 111.975 18.9817 102.135 18Z" fill="black"/>
<path d="M120.887 71.1404C121.22 71.9119 130.454 99.4194 131.942 100.746C133.482 102.118 103.81 114.807 102.135 112.781C100.459 110.756 94.1895 94.4147 93 93.2234C110.951 87.9315 119.101 58.919 97.8077 51.5998C104.363 39.7175 105.563 32.4224 102.135 18C111.975 18.9817 117.23 20.9127 126.173 27.0268C133.185 42.9941 123.507 49.9359 120.887 71.1404ZM120.887 71.1404C120.886 71.1462 120.885 71.152 120.884 71.1579C120.874 71.1189 120.875 71.1138 120.887 71.1404Z" stroke="black"/>
<path d="M147.5 37.5L161 46L169.5 37.5C175.805 59.7747 174.42 65.8527 170.5 80L161 76L153.5 83C155.699 66.0223 160.477 57.121 147.5 37.5Z" fill="black" stroke="black"/>
<path d="M185.267 23.5001C185.267 23.5001 211.066 61.9017 189.267 87.5C186.968 86.6169 205.446 97.2626 205.767 77.2533C206.088 57.244 208.076 36.2529 196.267 24.5001C190.869 21.2627 185.267 23.5001 185.267 23.5001Z" fill="black" stroke="black"/>
<path d="M192.291 35.3412C192.141 34.9811 191.933 34.6433 191.694 34.3353C190.38 32.6467 190.867 32.5597 193.709 34.0737C194.563 34.5286 195.207 35.2935 195.516 36.2102C196.868 40.2184 200.589 51.8701 200.959 59.7556C201.412 69.4119 197.993 69.4177 197.993 59.7556C197.993 50.2765 196.191 44.6957 192.291 35.3412Z" fill="black" stroke="black"/>
<ellipse cx="23.5463" cy="61.2263" rx="3.59664" ry="5.67871" transform="rotate(10.2102 23.5463 61.2263)" fill="black"/>
<ellipse cx="23.0793" cy="58.9526" rx="1" ry="1.5" fill="black"/>
<path d="M147.5 89C151.785 101.456 149.573 105.975 135.5 114C139.448 113.816 141.439 113.507 144.5 112.5C156.005 106.1 155.173 99.9388 150 86.5L148.5 88L147.5 89Z" fill="black" stroke="black"/>
<path d="M136.314 11.0551C128.238 10.556 121.151 13.6139 103 13.5508C153.625 19.2931 152.205 35.3732 148 37.5C150.472 38.9004 156 42.5 156 42.5C155.582 29.0348 144.39 11.5542 136.314 11.0551Z" fill="black" stroke="black"/>
<path d="M1 69.1265C2.25041 77.2856 6.61627 76.0286 13.0721 75.9064" stroke="black"/>
<path d="M33.4949 34.3832C54.659 55.5509 51.5028 71.9527 33 105.09L42.8983 110C84.5287 69.7786 83.7095 52.0573 44.383 28L33.4949 34.3832Z" fill="black" stroke="black"/>
</svg>
