<svg width="246" height="172" viewBox="0 0 246 172" fill="none" xmlns="http://www.w3.org/2000/svg">
<path d="M49.571 46.3315C-23.4704 94.0643 0.171906 115.426 47.071 145.832C99.9678 160.062 123.189 145.555 161.071 107.332V95.3315C123.594 44.4773 98.5046 37.2858 49.571 46.3315Z" fill="#FB881A" stroke="black" stroke-width="5"/>
<path d="M53.0039 45.909C53.0467 50.22 58.3823 52.0264 61.785 49.3794C74.8432 39.2214 89.2008 39.3778 118.466 53.2028C121.937 54.8426 125.981 52.2159 125.288 48.4401C123.906 40.9108 120.892 34.9689 114.544 26.5936C114 25.8754 113.261 25.3272 112.428 24.9845C103.203 21.191 97.6876 17.3497 86.2264 18.8926C84.1113 19.1773 81.9751 18.2687 80.8844 16.4343L74.2142 5.21628C72.822 2.87476 69.7516 2.03745 67.7814 3.91875C63.9663 7.56169 60.9213 13.2318 56.3923 23.0964C56.2704 23.3618 56.1693 23.6455 56.0963 23.9284C53.9701 32.1739 52.9271 38.1653 53.0039 45.909Z" fill="#FFCC61" stroke="black" stroke-width="5"/>
<path d="M48 146.856C52.1933 165.17 58.3632 167.75 72.2515 166.55C68.1838 161.949 67.3998 158.568 69.1671 150.85L48 146.856Z" fill="#FFCC61" stroke="black" stroke-width="4"/>
<path d="M112.649 141.087C109.349 138.914 104.888 141.191 105.208 145.129C105.838 152.889 107.982 157.748 112.774 163.342C113.077 163.695 113.441 164.007 113.834 164.254C125.211 171.405 132.873 171.445 142.106 166.777C146.175 164.72 144.834 158.438 140.582 156.792C133.501 154.05 125.154 149.324 112.649 141.087Z" fill="#FFCC61" stroke="black" stroke-width="4"/>
<path d="M159 92.5C161.559 98.7473 161.425 102.252 159 108.5C172.237 145.512 185.465 160.851 242 157.5C221.873 113.575 214.827 97.4069 200.5 97C226.311 82.0693 233.305 70.6644 226.5 42.5C225.991 30.6285 230.379 23.9342 237.5 12C195.753 30.429 173.528 42.1466 159 92.5Z" fill="#FFCC61" stroke="black" stroke-width="4"/>
<path d="M21.1944 68.7366C36.0669 55.7575 40.4242 58.8801 44.6001 67.4695C45.978 70.3038 49.4948 71.3282 52.2013 69.7136C68.2408 60.1453 78.2964 63.0728 94.4088 83.5126C108.317 106.066 107.868 117.761 87.9801 135.926C87.6257 136.25 87.2136 136.528 86.78 136.733C75.7221 141.98 67.7459 144.256 48.6023 144.949C47.6221 144.985 46.6332 144.716 45.7998 144.199C5.79323 119.369 -9.34055 104.086 21.1944 68.7366Z" fill="#FFCC61"/>
<ellipse cx="26.5" cy="93.5" rx="6.5" ry="9.5" transform="rotate(4.79669 26.5 93.5)" fill="black"/>
<ellipse cx="64.5001" cy="99.5" rx="6.5" ry="9.5" transform="rotate(-4.91248 64.5001 99.5)" fill="black"/>
<path d="M35 117C37.9828 118.244 41.2061 123.079 48 117" stroke="black" stroke-width="4" stroke-linecap="round"/>
<path d="M97 89C109.324 108.313 106.283 118.45 86 135.5" stroke="black" stroke-width="4" stroke-linecap="round"/>
<path d="M50.5 149.5C54.4365 164.101 58.8232 166.261 68.5 165C66.7814 162.856 66.0047 161.407 66 157C62.7565 164.563 58.9656 162.329 50.5 149.5Z" fill="#FB881A" stroke="#FB881A" stroke-linecap="round"/>
<path d="M97.5 22C104.5 24 106.654 26.3825 112.223 28C119.889 37.4515 126.5 49.5 120.5 51C116.397 38.3239 114.409 32.7617 97.5 22Z" fill="#FB881A" stroke="#FB881A" stroke-linecap="round"/>
<path d="M126 152C131.685 155.724 135.097 156.412 140 159C143.593 161.8 141.975 163.605 140 166C131.256 169.314 126.472 167.641 118 164C135.714 164.806 138.237 163.434 126 152Z" fill="#FB881A" stroke="#FB881A" stroke-linecap="round"/>
<path d="M224.5 45C218.118 77.3576 186.281 96.6873 190.354 102.5L219.5 81C224.429 72.196 228.912 67.3135 224.5 45Z" fill="#FB881A" stroke="#FB881A" stroke-linecap="round"/>
<path d="M160.5 108C187.711 146.366 202.23 154.504 227 148.5C228.173 143.865 228.168 139.82 227 130C233.063 143.282 235.798 149.127 239 155.5C184.761 156.682 175.501 146.255 160.5 108Z" fill="#FB881A" stroke="#FB881A" stroke-linecap="round"/>
</svg>
