<svg width="217" height="166" viewBox="0 0 217 166" fill="none" xmlns="http://www.w3.org/2000/svg">
<path d="M78.5196 148.114C76.2231 142.918 75.7099 140.267 76.5196 136.114C103.098 139.737 119.95 129.668 152.52 96.1143C160.647 105.687 163.463 111.53 160.52 124.114C134.925 147.759 115.995 152.683 78.5196 148.114Z" fill="black" stroke="black"/>
<path d="M15.1602 88.6144C12.2699 90.0002 16.0002 99.1489 7.66019 96.1144C-0.6798 93.0799 0.0594673 104.239 3.16019 104.614C-1.02933 109.89 4.56714 111.112 15.1602 107.114C80.016 150.608 113.181 151.595 162.66 82.6144H170.16C188.568 104.91 198.302 108.446 215.16 107.114C206.414 93.6892 202.546 85.6988 198.66 70.1144C199.079 52.4078 200.337 42.3225 204.16 24.1144C192.038 25.0815 184.853 27.759 166.66 62.1144C164.481 65.6969 162.51 65.9537 157.16 62.1144C91.7455 -9.67112 28.0777 3.21872 15.1602 88.6144Z" fill="black" stroke="black"/>
<path d="M55.6601 12.1142C41.2462 19.1222 28.9671 38.852 33.6601 38.6142C68.0139 2.52537 93.8661 7.01918 150.66 55.1142C150.606 39.745 152.507 32.0054 159.16 19.6142C160.443 10.0519 155.486 6.47146 140.16 2.11419C106.351 -0.394774 87.7085 0.690938 55.6601 12.1142Z" fill="black" stroke="black"/>
<path d="M67.1602 164.614C59.6335 151.943 57.0202 143.928 54.1602 128.614C58.1697 135.942 60.5266 140.1 67.1602 148.614C65.6179 153.099 65.9133 156.94 67.1602 164.614Z" fill="black" stroke="black"/>
<path d="M48.0534 87C41.4224 86.6316 39.3529 88.3631 36.5534 92.5C30.2528 88.1875 27.7951 85.4795 29.5534 79C31.9315 74.6978 34.6644 73.3624 41.5534 72C47.0391 73.832 47.6591 78.6499 48.0534 87Z" fill="black" stroke="black"/>
<path d="M89.6602 164.614C72.9431 156.226 65.214 148.37 54.1602 129.114C62.8487 133.272 67.9381 134.403 77.1602 135.614C78.9261 146.827 81.4761 153.17 89.6602 164.614Z" fill="black" stroke="black"/>
<circle cx="40.5" cy="77.5" r="5.5" fill="black"/>
<circle cx="41" cy="76" r="2" fill="black"/>
<path d="M103.5 60.0012C92.6465 59.8916 85.4319 67.0697 72 83.5012C72.718 97.9436 77.2582 101.956 88 106.501C97.7858 95.0131 105.676 92.8683 103.5 60.0012Z" fill="black" stroke="black"/>
<path d="M50.5 44.5C51.0627 36.8219 47.9201 34.8317 39 33.5C45.4406 27.3419 48.9828 24.088 54 22C52.4672 25.8804 53.1209 27.2467 56.5 28.5C62.1907 33.0716 63.1012 37.0198 64 44.5C60.6112 51.1042 62.8958 55.571 69.5 64C62.3629 70.0784 64.047 74.7301 71.5 84C72.7368 95.1646 73.0653 101.04 66.5 104C58.1421 104.402 58.2997 109.168 60 119C64.7102 123.995 65.0213 127.144 64 133C56.7811 131.089 54.4089 129.814 50.5 127.5C56.7805 126.759 56.811 122.431 54 111.5C53.5951 105.239 53.1712 101.781 56.5 94.5C65.5687 92.0016 63.1082 86.9045 54 75.5C51.4069 67.8423 50.9669 64.0598 56.5 60.5C51.1164 53.8489 48.7619 50.2088 50.5 44.5Z" fill="black" stroke="black"/>
<path d="M83.5 33.4998C77.4295 26.3517 75.7121 22.4119 75.5 15.4998C78.6235 14.0661 80.3762 14.2713 83.5 15.4998C84.2527 21.1141 85.6244 24.0479 91.5 28.4998C96.6857 33.9111 98.3054 37.5127 96.5 45.9998C94.1902 51.2988 95.3726 54.6911 99 60.9998C97.7488 59.5713 95.1008 60.8293 89.5 63.9998C83.8992 67.1703 93.1241 55.1525 87 54.9998C89.3846 39.9362 88.8215 35.3849 83.5 33.4998Z" fill="black" stroke="black"/>
<path d="M91.5005 117.5C94.0701 110.899 95.4052 107.181 94.5005 100C97.8476 96.8707 99.2719 94.3994 101.5 89.5C102.991 100.514 103.028 106.653 101.5 117.5C100.094 123.172 102.894 126.717 107.5 133C103.625 135.051 101.219 136.03 94.5005 136C92.2369 128.771 90.7218 124.717 91.5005 117.5Z" fill="black" stroke="black"/>
<path d="M111 46C108.748 37.8786 109.715 33.7227 112.5 26.5L122 32.5C116.809 36.2675 115.993 38.6327 120 43.5C120.069 51.8826 121.744 56.0536 128 62.5C129.581 71.3637 129.487 76.0798 125.5 83.5C124.213 89.4463 124.855 92.8307 129 99C128.639 106.368 129.438 110.21 134.5 116C129.799 120.126 127.096 122.282 122 125.5C123.869 117.318 123.596 99.3025 120 99C116.951 98.7436 112.836 90.7967 115.5 85.5C118.914 77.8945 119.538 73.2441 117.5 64C113.136 57.5683 111.596 53.6626 111 46Z" fill="black" stroke="black"/>
<path d="M147.5 69C144.522 62.3703 144.826 58.2939 145.5 51C148.446 53.5539 150.034 54.8098 152.5 56C152.933 62.2006 154.024 64.9592 157 69C153.069 72.5426 152.19 75.2268 152.5 81C156.956 82.1101 158.402 83.4454 160 86.5C155.977 92.0784 153.657 94.4663 149.5 98.5C149.774 92.5941 148.828 89.7283 142.5 86.5C142.815 78.8393 142.813 74.4546 147.5 69Z" fill="black" stroke="black"/>
<path d="M185 98C177.346 73.0965 175.658 59.2424 184 35C190.126 28.2231 193.842 24.8371 204 24C200.432 41.5261 199.326 51.6287 198.5 70C202.95 86.472 207.164 94.1306 215 107.5C203.302 107.621 196.741 106.987 185 98Z" fill="black" stroke="black"/>
</svg>
