<svg width="261" height="210" viewBox="0 0 261 210" fill="none" xmlns="http://www.w3.org/2000/svg">
<path d="M226 56.5024C221.528 64.7165 218.542 68.8446 211 74.0024C221.143 95.196 218.922 126.352 216.587 130.933C218.659 130.43 223.377 129.998 226 131.502C233.564 142.016 239.313 138.911 248.5 136.002C260.745 125.256 259.719 113.32 248.5 85.0024C254.391 59.0736 264 38.5025 256.5 35.0024C249 31.5024 239.334 36.8178 226 56.5024Z" fill="#FCCC4A"/>
<path d="M216.587 130.933C218.922 126.352 221.143 95.196 211 74.0024C218.542 68.8446 221.528 64.7165 226 56.5024C239.334 36.8178 249 31.5024 256.5 35.0024C264 38.5025 254.391 59.0736 248.5 85.0024C259.719 113.32 260.745 125.256 248.5 136.002C239.313 138.911 233.564 142.016 226 131.502C223.377 129.998 218.659 130.43 216.587 130.933ZM216.587 130.933C216.39 131.32 216.192 131.517 216 131.502C215.192 131.441 215.573 131.178 216.587 130.933Z" stroke="black" stroke-width="2"/>
<rect x="127.5" y="0.5" width="4" height="13" rx="2" fill="#FAA636" stroke="black"/>
<rect x="197.249" y="29.7795" width="4" height="13" rx="2" transform="rotate(40.9425 197.249 29.7795)" fill="#FAA636" stroke="black"/>
<rect x="164.464" y="2.19935" width="4" height="24" rx="2" transform="rotate(16.7999 164.464 2.19935)" fill="#FAA636" stroke="black"/>
<rect x="37.7042" y="26.263" width="4" height="18" rx="2" transform="rotate(-39.7703 37.7042 26.263)" fill="#FAA636" stroke="black"/>
<rect x="62.1032" y="6.81175" width="4" height="24" rx="2" transform="rotate(-23.1774 62.1032 6.81175)" fill="#FAA636" stroke="black"/>
<rect x="59.3576" y="191.7" width="4" height="24" rx="2" transform="rotate(-158.184 59.3576 191.7)" fill="#FAA636" stroke="black"/>
<rect x="84.3635" y="203.418" width="4" height="24" rx="2" transform="rotate(-158.184 84.3635 203.418)" fill="#FAA636" stroke="black"/>
<rect x="116.052" y="207.993" width="4" height="24" rx="2" transform="rotate(169.838 116.052 207.993)" fill="#FAA636" stroke="black"/>
<rect x="148.442" y="205.846" width="4" height="24" rx="2" transform="rotate(167.878 148.442 205.846)" fill="#FAA636" stroke="black"/>
<rect x="178.997" y="192.672" width="4" height="24" rx="2" transform="rotate(148.151 178.997 192.672)" fill="#FAA636" stroke="black"/>
<rect x="202.48" y="176.116" width="4" height="24" rx="2" transform="rotate(138.017 202.48 176.116)" fill="#FAA636" stroke="black"/>
<rect x="219.781" y="150.433" width="4" height="24" rx="2" transform="rotate(113.249 219.781 150.433)" fill="#FAA636" stroke="black"/>
<rect x="95.068" y="3.12878" width="4" height="13" rx="2" transform="rotate(-13.2059 95.068 3.12878)" fill="#FAA636" stroke="black"/>
<rect x="24.8892" y="50.4041" width="4" height="13" rx="2" transform="rotate(-59.3258 24.8892 50.4041)" fill="#FAA636" stroke="black"/>
<rect x="22.6649" y="152.079" width="4" height="18" rx="2" transform="rotate(-119.716 22.6649 152.079)" fill="#FAA636" stroke="black"/>
<rect x="39.6142" y="169.822" width="4" height="24" rx="2" transform="rotate(-143.46 39.6142 169.822)" fill="#FAA636" stroke="black"/>
<rect x="12.6491" y="75.3673" width="4" height="13" rx="2" transform="rotate(-68.3612 12.6491 75.3673)" fill="#FAA636" stroke="black"/>
<path d="M5.87988 98.9663C7.92475 88.8684 11.914 90.5511 20.1806 96.5188L28.503 124.411C21.9799 132.602 15.0292 133.326 10.4878 128.648C5.94642 123.971 2.85799 111.82 5.87988 98.9663Z" fill="#FCCC4A" stroke="black"/>
<ellipse cx="120.5" cy="105.5" rx="100.5" ry="93.5" fill="#FAA636"/>
<path d="M26 135.5C51.5265 121.464 61.8378 124.433 80.5 129C100.795 143.698 109.292 137.534 124.378 126.588L124.5 126.5C132.046 122.267 136.522 120.655 147 125.5C177.853 138.715 193.966 139.146 219.5 121C211.195 158.025 182 190 148.5 196.5C115 203 109.223 201.098 83 193.5C51.4598 180.197 38.6589 166.09 26 135.5Z" fill="#F8D686"/>
<path d="M124.5 126.5C132.046 122.267 136.522 120.655 147 125.5C177.853 138.715 193.966 139.146 219.5 121C211.195 158.025 182 190 148.5 196.5C115 203 109.223 201.098 83 193.5C51.4598 180.197 38.6589 166.09 26 135.5C51.5265 121.464 61.8378 124.433 80.5 129C100.795 143.698 109.292 137.534 124.378 126.588M124.5 126.5L124.378 126.588M124.5 126.5C124.459 126.529 124.419 126.559 124.378 126.588" stroke="#F8D686"/>
<path d="M58.4979 180.879C1.19568 137.913 15.581 63.4978 58.4979 33.2131C101.415 2.92845 154.502 10.713 177.5 29.2131C178.497 30.0152 179.399 30.7445 180.213 31.4059C182.125 32.96 191.659 40.501 193.409 42.2355C233.038 81.5133 222.277 153.905 179.124 184.305C179.039 184.365 178.946 184.419 178.853 184.465C130.945 207.926 103.373 205.651 58.4979 180.879Z" stroke="black" stroke-width="2"/>
<ellipse cx="79.5" cy="90.5" rx="7.5" ry="9.5" fill="#3F3B37"/>
<circle cx="82" cy="89" r="2" fill="#D9D9D9"/>
<ellipse cx="119.5" cy="90.5" rx="7.5" ry="9.5" fill="#3F3B37"/>
<circle cx="122" cy="89" r="2" fill="#D9D9D9"/>
<path d="M82 121C96.449 132.253 104.551 129.213 119 121" stroke="black" stroke-width="2"/>
<path d="M167.57 114.4C164.88 122.363 166.646 125.352 172.444 129.362C172.549 129.434 172.665 129.499 172.782 129.549C182.795 133.898 186.548 134.121 190.576 131.847C190.8 131.72 190.995 131.545 191.147 131.337C197.249 123.006 196.385 112.542 185.679 101.421C185.45 101.183 185.157 101.004 184.84 100.908C177.64 98.7442 173.604 99.4309 167.57 114.4Z" fill="#FCCC4A" stroke="black"/>
<path d="M6.5 97.5L14 103" stroke="black"/>
<path d="M4.5 107.5L12 111" stroke="black"/>
<path d="M5.5 117.5L13.5581 121.766C13.7586 121.872 14 121.727 14 121.5V121.5" stroke="black"/>
<path d="M180.5 116.5L191 108" stroke="black"/>
<path d="M185.5 121.5L194 117.5" stroke="black"/>
<path d="M186 127L194 126.5" stroke="black"/>
<path d="M194 117.5L195 117" stroke="black"/>
<path d="M231.5 68.5L258.5 43.5" stroke="black"/>
<path d="M232.5 88L251 72" stroke="black"/>
<path d="M238 98L254.5 102" stroke="black"/>
<path d="M238.5 114.5L258 120" stroke="black"/>
<path d="M231.5 124L247 136" stroke="black"/>
<path d="M229 96L234.5 97.5" stroke="black"/>
<path d="M228 111.5L233 113" stroke="black"/>
<path d="M66.5 77.0001C76.1282 68.6649 81.0266 70.4588 89.5 77.0001" stroke="black"/>
<path d="M107.5 78.0001C117.128 69.6649 122.027 71.4588 130.5 78.0001" stroke="black"/>
</svg>
