<svg width="260" height="210" viewBox="0 0 260 210" fill="none" xmlns="http://www.w3.org/2000/svg">
<path d="M225.441 56.5024C220.97 64.7165 217.983 68.8446 210.441 74.0024C220.584 95.196 218.363 126.352 216.028 130.933C218.101 130.43 222.819 129.998 225.441 131.502C233.006 142.016 238.754 138.911 247.941 136.002C260.187 125.256 259.16 113.32 247.941 85.0024C253.832 59.0736 263.441 38.5025 255.941 35.0024C248.441 31.5024 238.775 36.8178 225.441 56.5024Z" fill="black"/>
<path d="M216.028 130.933C218.363 126.352 220.584 95.196 210.441 74.0024C217.983 68.8446 220.97 64.7165 225.441 56.5024C238.775 36.8178 248.441 31.5024 255.941 35.0024C263.441 38.5025 253.832 59.0736 247.941 85.0024C259.16 113.32 260.187 125.256 247.941 136.002C238.754 138.911 233.006 142.016 225.441 131.502C222.819 129.998 218.101 130.43 216.028 130.933ZM216.028 130.933C215.831 131.32 215.633 131.517 215.441 131.502C214.634 131.441 215.015 131.178 216.028 130.933Z" stroke="black" stroke-width="2"/>
<rect x="126.941" y="0.5" width="4" height="13" rx="2" fill="black" stroke="black"/>
<rect x="196.69" y="29.7796" width="4" height="13" rx="2" transform="rotate(40.9425 196.69 29.7796)" fill="black" stroke="black"/>
<rect x="163.905" y="2.19935" width="4" height="24" rx="2" transform="rotate(16.7999 163.905 2.19935)" fill="black" stroke="black"/>
<rect x="37.1456" y="26.2629" width="4" height="18" rx="2" transform="rotate(-39.7703 37.1456 26.2629)" fill="black" stroke="black"/>
<rect x="61.5446" y="6.81168" width="4" height="24" rx="2" transform="rotate(-23.1774 61.5446 6.81168)" fill="black" stroke="black"/>
<rect x="58.799" y="191.7" width="4" height="24" rx="2" transform="rotate(-158.184 58.799 191.7)" fill="black" stroke="black"/>
<rect x="83.8049" y="203.418" width="4" height="24" rx="2" transform="rotate(-158.184 83.8049 203.418)" fill="black" stroke="black"/>
<rect x="115.494" y="207.993" width="4" height="24" rx="2" transform="rotate(169.838 115.494 207.993)" fill="black" stroke="black"/>
<rect x="147.883" y="205.846" width="4" height="24" rx="2" transform="rotate(167.878 147.883 205.846)" fill="black" stroke="black"/>
<rect x="178.439" y="192.672" width="4" height="24" rx="2" transform="rotate(148.151 178.439 192.672)" fill="black" stroke="black"/>
<rect x="201.921" y="176.116" width="4" height="24" rx="2" transform="rotate(138.017 201.921 176.116)" fill="black" stroke="black"/>
<rect x="219.223" y="150.433" width="4" height="24" rx="2" transform="rotate(113.249 219.223 150.433)" fill="black" stroke="black"/>
<rect x="94.5095" y="3.12878" width="4" height="13" rx="2" transform="rotate(-13.2059 94.5095 3.12878)" fill="black" stroke="black"/>
<rect x="24.3306" y="50.4041" width="4" height="13" rx="2" transform="rotate(-59.3258 24.3306 50.4041)" fill="black" stroke="black"/>
<rect x="22.1063" y="152.079" width="4" height="18" rx="2" transform="rotate(-119.716 22.1063 152.079)" fill="black" stroke="black"/>
<rect x="39.0556" y="169.822" width="4" height="24" rx="2" transform="rotate(-143.46 39.0556 169.822)" fill="black" stroke="black"/>
<rect x="12.0905" y="75.3673" width="4" height="13" rx="2" transform="rotate(-68.3612 12.0905 75.3673)" fill="black" stroke="black"/>
<path d="M5.32129 98.9663C7.36616 88.8683 11.3554 90.5511 19.622 96.5188L27.9444 124.411C21.4213 132.602 14.4706 133.325 9.9292 128.648C5.38783 123.971 2.29939 111.82 5.32129 98.9663Z" fill="black" stroke="black"/>
<ellipse cx="119.941" cy="105.5" rx="100.5" ry="93.5" fill="black"/>
<path d="M25.4414 135.5C50.9679 121.464 61.2792 124.433 79.9414 129C100.237 143.698 108.733 137.534 123.82 126.588L123.941 126.5C131.487 122.267 135.964 120.655 146.441 125.5C177.294 138.715 193.407 139.146 218.941 121C210.636 158.025 181.441 190 147.941 196.5C114.441 203 108.664 201.098 82.4414 193.5C50.9012 180.197 38.1003 166.09 25.4414 135.5Z" fill="black"/>
<path d="M123.941 126.5C131.487 122.267 135.964 120.655 146.441 125.5C177.295 138.715 193.407 139.146 218.941 121C210.636 158.025 181.441 190 147.941 196.5C114.441 203 108.664 201.098 82.4414 193.5C50.9012 180.197 38.1003 166.09 25.4414 135.5C50.9679 121.464 61.2792 124.433 79.9414 129C100.237 143.698 108.733 137.534 123.82 126.588M123.941 126.5L123.82 126.588M123.941 126.5C123.901 126.529 123.86 126.559 123.82 126.588" stroke="black"/>
<path d="M57.9393 180.879C0.637085 137.913 15.0224 63.4978 57.9393 33.2131C100.856 2.92845 153.944 10.713 176.941 29.2131C177.939 30.0152 178.841 30.7445 179.654 31.4059C181.566 32.96 191.1 40.501 192.85 42.2355C232.48 81.5133 221.718 153.905 178.565 184.305C178.48 184.365 178.388 184.419 178.295 184.465C130.386 207.926 102.814 205.651 57.9393 180.879Z" stroke="black" stroke-width="2"/>
<ellipse cx="78.9414" cy="90.5" rx="7.5" ry="9.5" fill="black"/>
<circle cx="81.4414" cy="89" r="2" fill="black"/>
<ellipse cx="118.941" cy="90.5" rx="7.5" ry="9.5" fill="black"/>
<circle cx="121.441" cy="89" r="2" fill="black"/>
<path d="M81.4414 121C95.8904 132.253 103.993 129.213 118.441 121" stroke="black" stroke-width="2"/>
<path d="M167.012 114.4C164.322 122.363 166.087 125.352 171.886 129.362C171.99 129.434 172.107 129.499 172.223 129.549C182.236 133.898 185.989 134.121 190.017 131.847C190.241 131.72 190.437 131.545 190.589 131.337C196.69 123.006 195.826 112.542 185.12 101.421C184.891 101.183 184.599 101.004 184.282 100.908C177.082 98.7442 173.045 99.4309 167.012 114.4Z" fill="black" stroke="black"/>
<path d="M5.94141 97.5L13.4414 103" stroke="black"/>
<path d="M3.94141 107.5L11.4414 111" stroke="black"/>
<path d="M4.94141 117.5L12.9995 121.766C13.2 121.872 13.4414 121.727 13.4414 121.5V121.5" stroke="black"/>
<path d="M179.941 116.5L190.441 108" stroke="black"/>
<path d="M184.941 121.5L193.441 117.5" stroke="black"/>
<path d="M185.441 127L193.441 126.5" stroke="black"/>
<path d="M193.441 117.5L194.441 117" stroke="black"/>
<path d="M230.941 68.5L257.941 43.5" stroke="black"/>
<path d="M231.941 88L250.441 72" stroke="black"/>
<path d="M237.441 98L253.941 102" stroke="black"/>
<path d="M237.941 114.5L257.441 120" stroke="black"/>
<path d="M230.941 124L246.441 136" stroke="black"/>
<path d="M228.441 96L233.941 97.5" stroke="black"/>
<path d="M227.441 111.5L232.441 113" stroke="black"/>
<path d="M65.9414 77.0002C75.5696 68.665 80.468 70.4589 88.9414 77.0002" stroke="black"/>
<path d="M106.941 78.0002C116.57 69.665 121.468 71.4589 129.941 78.0002" stroke="black"/>
</svg>
