<svg width="146" height="93" viewBox="0 0 146 93" fill="none" xmlns="http://www.w3.org/2000/svg">
<path d="M0 83.4321C16.6425 52.4503 6.93436 24.6577 0 14.6342C6.57593 14.8982 12.2091 15.7939 17.0207 17.1441C23.5129 18.9659 28.5095 21.6154 32.3086 24.6577C41.2415 31.8111 43.5537 41.1366 43.1191 46.9829C43.4873 59.1066 38.8892 67.442 32.3086 73.0474C27.8195 76.8713 22.4077 79.4247 17.0207 81.0435C10.8369 82.9018 4.6857 83.5286 0 83.4321Z" fill="#CD0F0F"/>
<path d="M112.715 18.9459L59.0051 23.7465L65.6088 0.276697C66.5788 0.0583471 69.1705 -0.150277 73.3904 0.148992C75.7195 0.281934 78.2684 0.563057 80.9429 1.04118C86.0014 1.94548 91.5093 3.55449 96.8289 6.1985C102.622 9.07792 108.192 13.1849 112.715 18.9459Z" fill="#CD0F0F"/>
<path d="M64.3005 74.7754L105.907 78.4682C102.753 82.4577 98.9411 85.416 94.9378 87.5826C90.2885 90.0987 85.3805 91.5469 80.943 92.3022C76.312 93.0904 72.1934 93.124 69.416 92.8291L64.3005 74.7754Z" fill="#CD0F0F"/>
<path d="M24.2073 48.7302C43.3713 20.9376 94.5595 -17.9719 146 48.7302C128.223 75.3077 78.9761 112.516 24.2073 48.7302Z" fill="#FF1F1F"/>
<ellipse cx="118.767" cy="46.5273" rx="4.53885" ry="5.46738" fill="#CD0F0F"/>
<path d="M108.554 29.6695C103.763 35.4406 97.0558 50.3544 108.554 63.8406" stroke="#CD0F0F" stroke-width="3" stroke-linecap="round"/>
</svg>
