<svg width="75" height="41" viewBox="0 0 75 41" fill="none" xmlns="http://www.w3.org/2000/svg">
<path d="M11.2833 15.723C-3.98383 20.7739 -0.32886 23.9816 13.9641 29.966C25.3637 33.6047 33.9418 33.1038 53.3511 27.4173C56.1864 26.4096 58.1402 26.7054 61.7028 27.4173C64.8734 25.1297 65.0984 20.633 61.3934 17.822C59.1805 18.6827 57.893 18.9485 55.4132 18.5716C33.4311 12.957 16.3735 12.5601 11.2833 15.723Z" fill="#F8AB43"/>
<path d="M32.0355 13.9618C36.218 3.87084 39.0552 -0.609502 41.0058 1.51796V6.01573L42.6555 13.0622L41.7276 15.611L32.0355 13.9618Z" fill="#F86834"/>
<path d="M31.623 32.1755C33.3665 37.8652 34.6161 40.2946 37.1908 39.9717C37.6393 39.845 37.797 39.6455 37.8095 38.9222C38.0882 36.211 38.2877 34.7195 39.0468 32.3255C39.0555 31.6395 38.9582 31.3846 38.6343 31.1261C35.9607 31.9199 34.4066 32.0372 31.623 32.1755Z" fill="#F86834"/>
<path d="M11.2833 15.723C-3.98383 20.7739 -0.32886 23.9816 13.9641 29.966C25.3637 33.6047 33.9418 33.1038 53.3511 27.4173C56.1864 26.4096 58.1402 26.7054 61.7028 27.4173C64.8734 25.1297 65.0984 20.633 61.3934 17.822C59.1805 18.6827 57.893 18.9485 55.4132 18.5716C33.4311 12.957 16.3735 12.5601 11.2833 15.723Z" stroke="black"/>
<path d="M32.0355 13.9618C36.218 3.87084 39.0552 -0.609502 41.0058 1.51796V6.01573L42.6555 13.0622L41.7276 15.611L32.0355 13.9618Z" stroke="black"/>
<path d="M31.623 32.1755C33.3665 37.8652 34.6161 40.2946 37.1908 39.9717C37.6393 39.845 37.797 39.6455 37.8095 38.9222C38.0882 36.211 38.2877 34.7195 39.0468 32.3255C39.0555 31.6395 38.9582 31.3846 38.6343 31.1261C35.9607 31.9199 34.4066 32.0372 31.623 32.1755Z" stroke="black"/>
<path d="M44.3049 29.9333C46.617 34.1385 48.3498 35.8758 51.3162 37.8793C51.722 38.1404 51.9085 38.0399 52.2442 37.8793C53.0068 37.3587 53.7952 33.7401 55.0281 28.8838C55.1807 28.0342 55.1105 27.6774 54.7188 27.2346L44.3049 29.9333Z" fill="#F86834" stroke="black"/>
<path d="M11.3107 15.8404C17.7273 19.726 16.9167 24.7219 13.7853 29.9335C9.25003 28.2502 6.72017 27.2688 2.64972 24.2363C2.26054 23.8435 2.06271 23.5644 1.82486 22.737C1.39073 22.2917 1.20554 21.9378 1 21.0878C2.74524 18.0844 7.13399 15.8142 11.3107 15.8404Z" fill="#40465B" stroke="black"/>
<ellipse cx="7.08348" cy="20.6378" rx="1.54661" ry="2.09896" fill="black"/>
<ellipse cx="6.98021" cy="20.6379" rx="1.23729" ry="1.79911" fill="#F8AB43"/>
<ellipse cx="6.98022" cy="20.6378" rx="0.618644" ry="0.899554" fill="black"/>
<ellipse cx="7.39265" cy="19.7383" rx="0.412429" ry="0.599703" fill="white"/>
<path d="M10.6921 16.0154C11.9294 16.3653 14.6927 17.8145 15.8475 20.8131C16.5349 21.6626 18.5283 22.8868 20.7967 23.3618C21.7151 23.5541 24.0549 24.1714 27.1893 23.8116C36.469 23.5617 54.8221 23.7864 55.0283 24.1114C56.1281 24.3113 58.3277 25.084 58.8433 25.1609C60.1837 25.3608 62.9882 25.5807 63.4831 24.8611C63.9643 23.0619 64.143 19.1639 61.0085 17.9645C59.565 18.4642 56.3481 19.3138 55.0283 18.7141C44.4426 15.6656 20.7554 10.858 10.6921 16.0154Z" fill="#2F3447" stroke="black"/>
<path d="M12.9602 16.8688C13.3726 17.1187 14.3625 17.8583 15.0224 18.8178C17.2907 19.7174 28.282 21.3366 54.1 20.6169C57.1135 20.3735 63.0627 19.9214 63.3675 20.0091C63.3031 19.8451 62.977 18.6509 62.2455 18.518C60.9739 18.9678 57.6882 19.7474 54.7187 19.2676C44.6142 16.8688 22.1161 13.0307 12.9602 16.8688Z" fill="#D2D878"/>
<path d="M63.3675 20.0091C63.0627 19.9214 57.1135 20.3735 54.1 20.6169C28.282 21.3366 17.2907 19.7174 15.0224 18.8178C14.3625 17.8583 13.3726 17.1187 12.9602 16.8688C22.1161 13.0307 44.6142 16.8688 54.7187 19.2676C57.6882 19.7474 60.9739 18.9678 62.2455 18.518C62.977 18.6509 63.3031 19.8451 63.3675 20.0091ZM63.3675 20.0091C63.3757 20.03 63.3797 20.0342 63.3797 20.0172C63.3797 20.0141 63.3756 20.0114 63.3675 20.0091Z" stroke="#D2D878"/>
<path d="M61.4159 17.7286C64.0765 16.2931 65.4763 15.3941 67.7583 13.5708C70.3122 11.0195 71.7167 9.84713 73.9999 9.8432C73.3831 17.3506 71.6653 19.1337 68.765 22.6032C72.0841 25.6757 73.2772 28.3704 73.9999 35.2199C72.8166 35.6156 71.6072 35.0986 67.2549 31.2055C64.9752 29.2416 63.6602 28.3505 61.2146 27.3345C64.6838 23.3594 64.8966 21.2456 61.4159 17.7286Z" fill="#F86834" stroke="black"/>
<path d="M16.2597 21.9872C16.3257 22.912 16.1937 24.5778 16.0906 25.0276C16.8467 25.4773 18.7289 26.1121 20.7911 26.1121C24.2623 26.1121 31.4111 26.7118 31.4111 26.7118H31.6173C34.2981 26.8617 39.6185 26.9216 39.8659 26.5619C40.1752 26.1121 33.7826 25.0626 32.9577 25.0626C30.2082 24.9627 23.9874 24.8686 21.6159 24.4629C19.8631 24.1631 16.8784 22.437 16.2597 21.9872Z" fill="#2F3447"/>
<path d="M16.2597 21.9872C16.3257 22.912 16.1937 24.5778 16.0906 25.0276C16.8467 25.4773 18.7289 26.1121 20.7911 26.1121C24.2623 26.1121 31.4111 26.7118 31.4111 26.7118H31.6173C34.2981 26.8617 39.6185 26.9216 39.8659 26.5619C40.1752 26.1121 33.7826 25.0626 32.9577 25.0626C30.2082 24.9627 23.9874 24.8686 21.6159 24.4629C19.8631 24.1631 16.8784 22.437 16.2597 21.9872ZM16.2597 21.9872C16.2562 21.9629 17.2908 23.2108 17.2908 23.1865C16.2667 22.1018 16.2579 21.9622 16.2597 21.9872Z" stroke="#2F3447"/>
</svg>
