<svg width="75" height="41" viewBox="0 0 75 41" fill="none" xmlns="http://www.w3.org/2000/svg">
<path d="M11.2835 15.723C-3.98359 20.7739 -0.328616 23.9816 13.9643 29.966C25.364 33.6047 33.942 33.1038 53.3513 27.4173C56.1867 26.4096 58.1404 26.7054 61.703 27.4173C64.8736 25.1297 65.0986 20.633 61.3937 17.822C59.1808 18.6827 57.8933 18.9485 55.4135 18.5716C33.4313 12.957 16.3738 12.5601 11.2835 15.723Z" fill="black"/>
<path d="M32.0357 13.9618C36.2182 3.87084 39.0554 -0.609502 41.0061 1.51796V6.01573L42.6558 13.0622L41.7278 15.611L32.0357 13.9618Z" fill="black"/>
<path d="M31.6233 32.1755C33.3668 37.8652 34.6164 40.2946 37.1911 39.9717C37.6396 39.845 37.7972 39.6455 37.8097 38.9222C38.0884 36.211 38.288 34.7195 39.047 32.3255C39.0557 31.6395 38.9585 31.3846 38.6346 31.1261C35.961 31.9199 34.4069 32.0372 31.6233 32.1755Z" fill="black"/>
<path d="M11.2835 15.723C-3.98359 20.7739 -0.328616 23.9816 13.9643 29.966C25.364 33.6047 33.942 33.1038 53.3513 27.4173C56.1867 26.4096 58.1404 26.7054 61.703 27.4173C64.8736 25.1297 65.0986 20.633 61.3937 17.822C59.1808 18.6827 57.8933 18.9485 55.4135 18.5716C33.4313 12.957 16.3738 12.5601 11.2835 15.723Z" stroke="black"/>
<path d="M32.0357 13.9618C36.2182 3.87084 39.0554 -0.609502 41.0061 1.51796V6.01573L42.6558 13.0622L41.7278 15.611L32.0357 13.9618Z" stroke="black"/>
<path d="M31.6233 32.1755C33.3668 37.8652 34.6164 40.2946 37.1911 39.9717C37.6396 39.845 37.7972 39.6455 37.8097 38.9222C38.0884 36.211 38.288 34.7195 39.047 32.3255C39.0557 31.6395 38.9585 31.3846 38.6346 31.1261C35.961 31.9199 34.4069 32.0372 31.6233 32.1755Z" stroke="black"/>
<path d="M44.3049 29.9333C46.617 34.1385 48.3498 35.8758 51.3162 37.8793C51.722 38.1404 51.9085 38.0399 52.2442 37.8793C53.0068 37.3587 53.7952 33.7401 55.0281 28.8838C55.1807 28.0342 55.1105 27.6774 54.7188 27.2346L44.3049 29.9333Z" fill="black" stroke="black"/>
<path d="M11.3107 15.8404C17.7273 19.7259 16.9167 24.7219 13.7853 29.9334C9.25003 28.2501 6.72017 27.2687 2.64972 24.2362C2.26054 23.8434 2.06271 23.5644 1.82486 22.737C1.39073 22.2916 1.20554 21.9377 1 21.0878C2.74524 18.0844 7.13399 15.8142 11.3107 15.8404Z" fill="black" stroke="black"/>
<ellipse cx="7.08348" cy="20.6378" rx="1.54661" ry="2.09896" fill="black"/>
<ellipse cx="6.98045" cy="20.6379" rx="1.23729" ry="1.79911" fill="black"/>
<ellipse cx="6.98022" cy="20.6378" rx="0.618644" ry="0.899554" fill="black"/>
<ellipse cx="7.3929" cy="19.7383" rx="0.412429" ry="0.599703" fill="black"/>
<path d="M10.6921 16.0155C11.9294 16.3653 14.6927 17.8146 15.8475 20.8131C16.5349 21.6627 18.5283 22.8869 20.7967 23.3619C21.7151 23.5542 24.0549 24.1715 27.1893 23.8116C36.469 23.5618 54.8221 23.7864 55.0283 24.1115C56.1281 24.3114 58.3277 25.0841 58.8433 25.161C60.1837 25.3609 62.9882 25.5808 63.4831 24.8611C63.9643 23.062 64.143 19.1639 61.0085 17.9645C59.565 18.4643 56.3481 19.3139 55.0283 18.7142C44.4426 15.6657 20.7554 10.8581 10.6921 16.0155Z" fill="black" stroke="black"/>
<path d="M12.9602 16.8689C13.3726 17.1187 14.3625 17.8584 15.0224 18.8179C17.2907 19.7174 28.282 21.3366 54.1 20.617C57.1135 20.3736 63.0627 19.9214 63.3675 20.0092C63.3031 19.8452 62.977 18.651 62.2455 18.518C60.9739 18.9678 57.6882 19.7474 54.7187 19.2677C44.6142 16.8689 22.1161 13.0308 12.9602 16.8689Z" fill="black"/>
<path d="M63.3675 20.0092C63.0627 19.9214 57.1135 20.3736 54.1 20.617C28.282 21.3366 17.2907 19.7174 15.0224 18.8179C14.3625 17.8584 13.3726 17.1187 12.9602 16.8689C22.1161 13.0308 44.6142 16.8689 54.7187 19.2677C57.6882 19.7474 60.9739 18.9678 62.2455 18.518C62.977 18.651 63.3031 19.8452 63.3675 20.0092ZM63.3675 20.0092C63.3757 20.0301 63.3797 20.0343 63.3797 20.0173C63.3797 20.0142 63.3756 20.0115 63.3675 20.0092Z" stroke="black"/>
<path d="M61.4159 17.7286C64.0765 16.2931 65.4763 15.3941 67.7583 13.5708C70.3122 11.0195 71.7167 9.84713 73.9999 9.8432C73.3831 17.3506 71.6653 19.1337 68.765 22.6032C72.0841 25.6757 73.2772 28.3704 73.9999 35.2199C72.8166 35.6156 71.6072 35.0986 67.2549 31.2055C64.9752 29.2416 63.6602 28.3505 61.2146 27.3345C64.6838 23.3594 64.8966 21.2456 61.4159 17.7286Z" fill="black" stroke="black"/>
<path d="M16.2597 21.9873C16.3257 22.912 16.1937 24.5779 16.0906 25.0276C16.8467 25.4773 18.7289 26.1122 20.7911 26.1122C24.2623 26.1122 31.4111 26.7118 31.4111 26.7118H31.6173C34.2981 26.8618 39.6185 26.9217 39.8659 26.5619C40.1752 26.1122 33.7826 25.0627 32.9577 25.0627C30.2082 24.9627 23.9874 24.8686 21.6159 24.463C19.8631 24.1632 16.8784 22.437 16.2597 21.9873Z" fill="black"/>
<path d="M16.2597 21.9873C16.3257 22.912 16.1937 24.5779 16.0906 25.0276C16.8467 25.4773 18.7289 26.1122 20.7911 26.1122C24.2623 26.1122 31.4111 26.7118 31.4111 26.7118H31.6173C34.2981 26.8618 39.6185 26.9217 39.8659 26.5619C40.1752 26.1122 33.7826 25.0627 32.9577 25.0627C30.2082 24.9627 23.9874 24.8686 21.6159 24.463C19.8631 24.1632 16.8784 22.437 16.2597 21.9873ZM16.2597 21.9873C16.2562 21.963 17.2908 23.2109 17.2908 23.1865C16.2667 22.1019 16.2579 21.9623 16.2597 21.9873Z" stroke="black"/>
</svg>
