<svg width="214" height="88" viewBox="0 0 214 88" fill="none" xmlns="http://www.w3.org/2000/svg">
<path d="M30.8633 33.4662C-13.4741 44.604 -2.85963 51.6774 38.6486 64.8738C71.7545 72.8975 96.666 71.793 153.033 59.2535C161.267 57.0314 166.941 57.6838 177.287 59.2535C186.495 54.2091 187.148 44.2934 176.389 38.0947C169.962 39.9927 166.223 40.5789 159.022 39.7477C95.1829 27.3667 45.6459 26.4914 30.8633 33.4662Z" fill="#F8AB43"/>
<path d="M91.13 29.5824C103.276 7.33057 111.516 -2.54916 117.181 2.14216V12.0603L121.972 27.5988L119.277 33.2191L91.13 29.5824Z" fill="#F86834"/>
<path d="M89.9322 69.7461C94.9955 82.2924 98.6244 87.6496 106.102 86.9376C107.404 86.6582 107.862 86.2183 107.898 84.6233C108.708 78.6447 109.287 75.3559 111.492 70.0767C111.517 68.5641 111.234 68.0019 110.294 67.4318C102.529 69.1824 98.0161 69.441 89.9322 69.7461Z" fill="#F86834"/>
<path d="M30.8633 33.4662C-13.4741 44.604 -2.85963 51.6774 38.6486 64.8738C71.7545 72.8975 96.666 71.793 153.033 59.2535C161.267 57.0314 166.941 57.6838 177.287 59.2535C186.495 54.2091 187.148 44.2934 176.389 38.0947C169.962 39.9927 166.223 40.5789 159.022 39.7477C95.1829 27.3667 45.6459 26.4914 30.8633 33.4662Z" stroke="black"/>
<path d="M91.13 29.5824C103.276 7.33057 111.516 -2.54916 117.181 2.14216V12.0603L121.972 27.5988L119.277 33.2191L91.13 29.5824Z" stroke="black"/>
<path d="M89.9322 69.7461C94.9955 82.2924 98.6244 87.6496 106.102 86.9376C107.404 86.6582 107.862 86.2183 107.898 84.6233C108.708 78.6447 109.287 75.3559 111.492 70.0767C111.517 68.5641 111.234 68.0019 110.294 67.4318C102.529 69.1824 98.0161 69.441 89.9322 69.7461Z" stroke="black"/>
<path d="M126.763 64.8015C133.477 74.0745 138.509 77.9056 147.124 82.3236C148.303 82.8993 148.844 82.6777 149.819 82.3236C152.034 81.1755 154.324 73.196 157.904 62.4872C158.347 60.6137 158.143 59.827 157.006 58.8506L126.763 64.8015Z" fill="#F86834" stroke="black"/>
<path d="M30.9435 33.725C49.578 42.2932 47.2238 53.3099 38.1299 64.802C24.959 61.0901 17.612 58.9261 5.79096 52.239C4.66074 51.3727 4.08621 50.7574 3.39548 48.9329C2.13472 47.9508 1.59692 47.1704 1 45.2962C6.06838 38.6733 18.8138 33.6673 30.9435 33.725Z" fill="#40465B" stroke="black"/>
<ellipse cx="18.6666" cy="44.3039" rx="4.49153" ry="4.62848" fill="black"/>
<ellipse cx="18.3671" cy="44.3039" rx="3.59322" ry="3.96727" fill="#F8AB43"/>
<ellipse cx="18.3674" cy="44.3039" rx="1.79661" ry="1.98363" fill="black"/>
<ellipse cx="19.5649" cy="42.3203" rx="1.19774" ry="1.32242" fill="white"/>
<path d="M29.147 34.1108C32.7402 34.8822 40.7651 38.0781 44.1187 44.6902C46.115 46.5636 51.904 49.2631 58.4916 50.3105C61.159 50.7346 67.9538 52.0958 77.0566 51.3023C104.006 50.7513 157.305 51.2467 157.904 51.9635C161.098 52.4043 167.486 54.1082 168.983 54.2778C172.876 54.7186 181.02 55.2035 182.458 53.6165C183.855 49.6493 184.374 41.0535 175.271 38.4087C171.079 39.5107 161.737 41.3841 157.904 40.0617C127.162 33.3394 58.3718 22.738 29.147 34.1108Z" fill="#2F3447" stroke="black"/>
<path d="M35.7344 35.9927C36.9321 36.5437 39.8067 38.1747 41.7231 40.2905C48.3106 42.2742 80.2304 45.8447 155.209 44.2578C163.96 43.721 181.238 42.724 182.123 42.9175C181.936 42.5559 180.989 39.9225 178.864 39.6293C175.171 40.6212 165.629 42.3403 157.006 41.2824C127.661 35.9927 62.3242 27.5292 35.7344 35.9927Z" fill="#D2D878"/>
<path d="M182.123 42.9175C181.238 42.724 163.96 43.721 155.209 44.2578C80.2304 45.8447 48.3106 42.2742 41.7231 40.2905C39.8067 38.1747 36.9321 36.5437 35.7344 35.9927C62.3242 27.5292 127.661 35.9927 157.006 41.2824C165.629 42.3403 175.171 40.6212 178.864 39.6293C180.989 39.9225 181.936 42.5559 182.123 42.9175ZM182.123 42.9175C182.147 42.9636 182.158 42.9728 182.158 42.9354C182.158 42.9286 182.146 42.9226 182.123 42.9175Z" stroke="#D2D878"/>
<path d="M176.455 37.8887C184.181 34.7231 188.246 32.7408 194.873 28.7203C202.29 23.0943 206.369 20.509 213 20.5004C211.208 37.0551 206.22 40.9871 197.797 48.6378C207.436 55.413 210.901 61.3553 213 76.4592C209.563 77.3319 206.051 76.1917 193.412 67.6069C186.791 63.2764 182.972 61.3114 175.87 59.0708C185.945 50.3053 186.563 45.6442 176.455 37.8887Z" fill="#F86834" stroke="black"/>
<path d="M45.3164 47.2794C45.508 49.3187 45.1246 52.9921 44.8252 53.9838C47.0211 54.9755 52.4872 56.3753 58.4759 56.3753C68.5569 56.3753 89.3177 57.6977 89.3177 57.6977H89.9166C97.7019 58.0283 113.153 58.1605 113.871 57.3671C114.77 56.3754 96.2047 54.0611 93.8092 54.0611C85.8243 53.8407 67.7584 53.6332 60.8714 52.7387C55.781 52.0776 47.113 48.2712 45.3164 47.2794Z" fill="#2F3447"/>
<path d="M45.3164 47.2794C45.508 49.3187 45.1246 52.9921 44.8252 53.9838C47.0211 54.9755 52.4872 56.3753 58.4759 56.3753C68.5569 56.3753 89.3177 57.6977 89.3177 57.6977H89.9166C97.7019 58.0283 113.153 58.1605 113.871 57.3671C114.77 56.3754 96.2047 54.0611 93.8092 54.0611C85.8243 53.8407 67.7584 53.6332 60.8714 52.7387C55.781 52.0776 47.113 48.2712 45.3164 47.2794ZM45.3164 47.2794C45.306 47.2258 48.3109 49.9776 48.3109 49.924C45.3367 47.5322 45.3112 47.2243 45.3164 47.2794Z" stroke="#2F3447"/>
</svg>
