<svg width="356" height="132" viewBox="0 0 356 132" fill="none" xmlns="http://www.w3.org/2000/svg">
<path d="M50.8661 49.6092C-23.169 66.4538 -5.44488 77.1514 63.8661 97.1093C119.147 109.244 160.744 107.574 254.866 88.6093C268.616 85.2488 278.09 86.2353 295.366 88.6093C310.741 80.9804 311.832 65.984 293.866 56.6092C283.135 59.4798 276.891 60.3662 264.866 59.1092C158.268 40.3844 75.5502 39.0608 50.8661 49.6092Z" fill="#F8AB43"/>
<path d="M151.5 43.7355C171.782 10.0823 185.541 -4.85955 195 2.2355V17.2355L203 40.7355L198.5 49.2355L151.5 43.7355Z" fill="#F86834"/>
<path d="M149.5 104.478C157.955 123.453 164.014 131.555 176.5 130.478C178.675 130.056 179.439 129.39 179.5 126.978C180.851 117.936 181.819 112.962 185.5 104.978C185.542 102.691 185.071 101.84 183.5 100.978C170.535 103.626 162.999 104.017 149.5 104.478Z" fill="#F86834"/>
<path d="M50.8661 49.6092C-23.169 66.4538 -5.44488 77.1514 63.8661 97.1093C119.147 109.244 160.744 107.574 254.866 88.6093C268.616 85.2488 278.09 86.2353 295.366 88.6093C310.741 80.9804 311.832 65.984 293.866 56.6092C283.135 59.4798 276.891 60.3662 264.866 59.1092C158.268 40.3844 75.5502 39.0608 50.8661 49.6092Z" stroke="black"/>
<path d="M151.5 43.7355C171.782 10.0823 185.541 -4.85955 195 2.2355V17.2355L203 40.7355L198.5 49.2355L151.5 43.7355Z" stroke="black"/>
<path d="M149.5 104.478C157.955 123.453 164.014 131.555 176.5 130.478C178.675 130.056 179.439 129.39 179.5 126.978C180.851 117.936 181.819 112.962 185.5 104.978C185.542 102.691 185.071 101.84 183.5 100.978C170.535 103.626 162.999 104.017 149.5 104.478Z" stroke="black"/>
<path d="M211 97C222.212 111.024 230.615 116.818 245 123.5C246.968 124.371 247.872 124.035 249.5 123.5C253.198 121.764 257.021 109.696 263 93.5C263.74 90.6665 263.4 89.4767 261.5 88L211 97Z" fill="#F86834" stroke="black"/>
<path d="M51 50.0007C82.1161 62.959 78.185 79.6204 63 97.0007C41.007 91.3871 28.7389 88.1142 9 78.0008C7.11274 76.6907 6.15339 75.7602 5 73.0008C2.89477 71.5155 1.99675 70.3352 1 67.5008C9.46324 57.4844 30.7456 49.9133 51 50.0007Z" fill="#40465B" stroke="black"/>
<ellipse cx="30.5" cy="66" rx="7.5" ry="7" fill="black"/>
<circle cx="30" cy="66" r="6" fill="#F8AB43"/>
<circle cx="30" cy="66" r="3" fill="black"/>
<circle cx="32" cy="63" r="2" fill="white"/>
<path d="M48 50.5841C54 51.7508 67.4 56.5841 73 66.5841C76.3333 69.4174 86 73.5 97 75.0841C101.454 75.7255 112.8 77.7841 128 76.5841C173 75.7508 262 76.5 263 77.5841C268.333 78.2508 279 80.8277 281.5 81.0841C288 81.7508 301.6 82.4841 304 80.0841C306.333 74.0841 307.2 61.0841 292 57.0841C285 58.7508 269.4 61.5841 263 59.5841C211.667 49.4174 96.8 33.3841 48 50.5841Z" fill="#2F3447" stroke="black"/>
<path d="M59 53.4302C61 54.2635 65.8 56.7302 69 59.9302C80 62.9302 133.3 68.3302 258.5 65.9302C273.113 65.1184 301.963 63.6105 303.441 63.9031C303.128 63.3562 301.547 59.3736 298 58.9302C291.833 60.4302 275.9 63.0302 261.5 61.4302C212.5 53.4302 103.4 40.6302 59 53.4302Z" fill="#D2D878"/>
<path d="M303.441 63.9031C301.963 63.6105 273.113 65.1184 258.5 65.9302C133.3 68.3302 80 62.9302 69 59.9302C65.8 56.7302 61 54.2635 59 53.4302C103.4 40.6302 212.5 53.4302 261.5 61.4302C275.9 63.0302 291.833 60.4302 298 58.9302C301.547 59.3736 303.128 63.3562 303.441 63.9031ZM303.441 63.9031C303.481 63.9729 303.5 63.9868 303.5 63.9302C303.5 63.9199 303.48 63.9109 303.441 63.9031Z" stroke="#D2D878"/>
<path d="M293.976 56.2977C306.878 51.5102 313.666 48.5121 324.732 42.4316C337.117 33.9231 343.928 30.0131 355 30C352.009 55.037 343.679 60.9836 329.614 72.5545C345.71 82.8011 351.495 91.788 355 114.631C349.262 115.951 343.397 114.226 322.291 101.243C311.236 94.6934 304.859 91.7217 293 88.3331C309.823 75.0762 310.855 68.027 293.976 56.2977Z" fill="#F86834" stroke="black"/>
<path d="M75.0001 70.5001C75.32 73.5842 74.6798 79.1397 74.1798 80.6396C77.8465 82.1394 86.9739 84.2565 96.9739 84.2565C113.807 84.2565 148.474 86.2565 148.474 86.2565H149.474C162.474 86.7564 188.274 86.9563 189.474 85.7565C190.974 84.2566 159.974 80.7565 155.974 80.7565C142.641 80.4232 112.474 80.1094 100.974 78.7566C92.4739 77.7567 78 72 75.0001 70.5001Z" fill="#2F3447"/>
<path d="M75.0001 70.5001C75.32 73.5842 74.6798 79.1397 74.1798 80.6396C77.8465 82.1394 86.9739 84.2565 96.9739 84.2565C113.807 84.2565 148.474 86.2565 148.474 86.2565H149.474C162.474 86.7564 188.274 86.9563 189.474 85.7565C190.974 84.2566 159.974 80.7565 155.974 80.7565C142.641 80.4232 112.474 80.1094 100.974 78.7566C92.4739 77.7567 78 72 75.0001 70.5001ZM75.0001 70.5001C74.9827 70.419 80.0002 74.5807 80.0002 74.4996C75.034 70.8823 74.9914 70.4168 75.0001 70.5001Z" stroke="#2F3447"/>
</svg>
