<svg width="225" height="92" viewBox="0 0 225 92" fill="none" xmlns="http://www.w3.org/2000/svg">
<path d="M32.4129 34.9762C-14.225 46.6321 -3.05979 54.0345 40.6022 67.8446C75.4258 76.2416 101.63 75.0857 160.921 61.9629C169.583 59.6376 175.551 60.3202 186.434 61.9629C196.12 56.684 196.807 46.307 185.489 39.82C178.729 41.8063 174.796 42.4197 167.221 41.5499C100.07 28.593 47.9626 27.6771 32.4129 34.9762Z" fill="black"/>
<path d="M95.8066 30.9118C108.583 7.62502 117.25 -2.71423 123.209 2.19529V12.5748L128.249 28.8359L125.414 34.7176L95.8066 30.9118Z" fill="black"/>
<path d="M94.5467 72.9436C99.8727 86.0734 103.69 91.6799 111.555 90.9347C112.925 90.6423 113.407 90.182 113.445 88.5128C114.296 82.2561 114.906 78.8143 117.225 73.2896C117.251 71.7066 116.954 71.1183 115.965 70.5217C107.797 72.3537 103.05 72.6243 94.5467 72.9436Z" fill="black"/>
<path d="M32.4129 34.9762C-14.225 46.6321 -3.05979 54.0345 40.6022 67.8446C75.4258 76.2416 101.63 75.0857 160.921 61.9629C169.583 59.6376 175.551 60.3202 186.434 61.9629C196.12 56.684 196.807 46.307 185.489 39.82C178.729 41.8063 174.796 42.4197 167.221 41.5499C100.07 28.593 47.9626 27.6771 32.4129 34.9762Z" stroke="black"/>
<path d="M95.8066 30.9118C108.583 7.62502 117.25 -2.71423 123.209 2.19529V12.5748L128.249 28.8359L125.414 34.7176L95.8066 30.9118Z" stroke="black"/>
<path d="M94.5467 72.9436C99.8727 86.0734 103.69 91.6799 111.555 90.9347C112.925 90.6423 113.407 90.182 113.445 88.5128C114.296 82.2561 114.906 78.8143 117.225 73.2896C117.251 71.7066 116.954 71.1183 115.965 70.5217C107.797 72.3537 103.05 72.6243 94.5467 72.9436Z" stroke="black"/>
<path d="M133.288 67.769C140.351 77.4733 145.644 81.4826 154.706 86.1061C155.946 86.7085 156.515 86.4766 157.541 86.1061C159.871 84.9046 162.279 76.5539 166.045 65.3471C166.511 63.3864 166.297 62.5631 165.1 61.5413L133.288 67.769Z" fill="black" stroke="black"/>
<path d="M32.4972 35.2472C52.0986 44.2138 49.6222 55.7429 40.0565 67.7695C26.2021 63.8851 18.4739 61.6203 6.03955 54.6222C4.85068 53.7157 4.24635 53.0718 3.51977 51.1624C2.1936 50.1346 1.62789 49.3179 1 47.3566C6.33136 40.4256 19.7381 35.1867 32.4972 35.2472Z" fill="black" stroke="black"/>
<ellipse cx="19.5832" cy="46.3181" rx="4.72458" ry="4.84375" fill="black"/>
<ellipse cx="19.2684" cy="46.3181" rx="3.77966" ry="4.15179" fill="black"/>
<ellipse cx="19.2685" cy="46.3181" rx="1.88983" ry="2.07589" fill="black"/>
<ellipse cx="20.5282" cy="44.2421" rx="1.25989" ry="1.38393" fill="black"/>
<path d="M30.6074 35.6509C34.3871 36.4582 42.8283 39.8027 46.356 46.7223C48.4558 48.6829 54.5453 51.5079 61.4747 52.604C64.2805 53.0479 71.4278 54.4723 81.0029 53.642C109.35 53.0653 165.415 53.5838 166.045 54.3339C169.405 54.7953 176.124 56.5784 177.699 56.7558C181.794 57.2171 190.361 57.7246 191.873 56.0639C193.343 51.9121 193.889 42.9165 184.314 40.1487C179.904 41.3019 170.077 43.2625 166.045 41.8786C133.708 34.8436 61.3487 23.7491 30.6074 35.6509Z" fill="black" stroke="black"/>
<path d="M37.5366 37.6203C38.7965 38.1969 41.8202 39.9037 43.8361 42.118C50.7654 44.1939 84.3414 47.9305 163.21 46.2698C172.416 45.708 190.589 44.6647 191.521 44.8672C191.324 44.4887 190.328 41.7329 188.093 41.4261C184.208 42.464 174.171 44.2631 165.1 43.156C134.233 37.6203 65.5061 28.7631 37.5366 37.6203Z" fill="black"/>
<path d="M191.521 44.8672C190.589 44.6647 172.416 45.708 163.21 46.2698C84.3414 47.9305 50.7654 44.1939 43.8361 42.118C41.8202 39.9037 38.7965 38.1969 37.5366 37.6203C65.5061 28.7631 134.233 37.6203 165.1 43.156C174.171 44.2631 184.208 42.464 188.093 41.4261C190.328 41.7329 191.324 44.4887 191.521 44.8672ZM191.521 44.8672C191.546 44.9154 191.558 44.925 191.558 44.8859C191.558 44.8787 191.545 44.8725 191.521 44.8672Z" stroke="black"/>
<path d="M185.558 39.6044C193.686 36.2916 197.962 34.2171 204.933 30.0096C212.735 24.122 217.025 21.4164 224 21.4073C222.116 38.732 216.868 42.8469 208.008 50.8535C218.147 57.9439 221.792 64.1625 224 79.9689C220.385 80.8822 216.691 79.6889 203.395 70.7049C196.431 66.1729 192.414 64.1166 184.943 61.7718C195.541 52.5985 196.191 47.7207 185.558 39.6044Z" fill="black" stroke="black"/>
<path d="M47.6158 49.432C47.8174 51.5661 47.4141 55.4103 47.0991 56.4482C49.4089 57.486 55.1587 58.9509 61.4581 58.9509C72.0622 58.9509 93.9002 60.3349 93.9002 60.3349H94.5302C102.719 60.6808 118.972 60.8191 119.728 59.9889C120.673 58.951 101.145 56.5291 98.6248 56.5291C90.2255 56.2985 71.2223 56.0813 63.9779 55.1452C58.6234 54.4533 49.5056 50.4699 47.6158 49.432Z" fill="black"/>
<path d="M47.6158 49.432C47.8174 51.5661 47.4141 55.4103 47.0991 56.4482C49.4089 57.486 55.1587 58.9509 61.4581 58.9509C72.0622 58.9509 93.9002 60.3349 93.9002 60.3349H94.5302C102.719 60.6808 118.972 60.8191 119.728 59.9889C120.673 58.951 101.145 56.5291 98.6248 56.5291C90.2255 56.2985 71.2223 56.0813 63.9779 55.1452C58.6234 54.4533 49.5056 50.4699 47.6158 49.432ZM47.6158 49.432C47.6049 49.3759 50.7657 52.2557 50.7657 52.1995C47.6372 49.6965 47.6104 49.3743 47.6158 49.432Z" stroke="black"/>
</svg>
