<svg width="268" height="147" viewBox="0 0 268 147" fill="none" xmlns="http://www.w3.org/2000/svg">
<path d="M1 59.3782C34.5834 109.741 68.2669 123.447 92.0248 123.903C104.251 144.293 111.83 145.705 125.511 146L128.812 123.903L164.184 113.738C175.022 117.083 179 117.129 182.106 113.738C179.123 109.073 179.168 106.761 182.106 103.131C190.033 95.5444 194.471 94.8639 202.387 95.176L204.745 88.1048L213.234 84.5692C223.085 100.237 233.323 101.712 253.794 100.921C231.872 80.6435 231.553 59.7294 267 20.0448C247.873 11.7907 235.404 22.1497 210.404 64.2396C200.068 64.8713 188.367 60.1836 150.979 37.7227C147.33 25.7159 149.688 18.0635 155.223 4.13463C135.117 -3.89503 123.627 3.15228 102.872 29.3257C39.5504 33.2036 20.1288 40.7457 1 59.3782Z" fill="#6A82CC" stroke="black"/>
<ellipse cx="6.01387" cy="8.89151" rx="6.01387" ry="8.89151" transform="matrix(0.986193 0.165598 -0.189686 0.981845 33.6145 46.0931)" fill="black"/>
<ellipse cx="37.0762" cy="52.2674" rx="1.67553" ry="2.34311" fill="#D9D9D9"/>
<path d="M129 124C151.095 118.669 162.61 114.364 181.398 104.053C189.289 96.725 193.921 94.7512 202.64 96.0748L205 86.7665C200.842 83.0317 180.551 93.1833 134.665 112.032L129 124Z" fill="white" stroke="black"/>
<path d="M87.3196 67.4142C88.353 76.2723 87.3367 81.0608 81.2833 88.7566C81.104 88.9846 80.9391 89.1705 81.119 89.3979C81.4474 89.8131 82.2242 89.715 82.5682 89.3126C88.5438 82.324 89.9586 77.5642 88.4306 68.636C88.3422 68.1195 88.1799 67.6156 87.9486 67.1454C87.2487 65.7233 86.9798 65.4236 87.3196 67.4142Z" fill="#778EDC" stroke="black"/>
<path d="M95.5297 72.1785C96.4329 79.5526 95.5465 83.5423 90.2644 89.9439C90.0975 90.1461 89.9425 90.3143 90.1153 90.5114C90.4085 90.8456 91.0631 90.7713 91.3602 90.4405C96.5615 84.651 97.8219 80.6992 96.5301 73.3557C96.4357 72.8191 96.2607 72.2976 96.0075 71.8153C95.4495 70.7523 95.2443 70.5868 95.5297 72.1785Z" fill="#778EDC" stroke="black"/>
<path d="M103.32 74.0017C104.345 80.2265 103.353 83.6141 97.4262 88.9901C97.1625 89.2293 96.9297 89.4642 97.2297 89.6558C97.5556 89.864 98.1613 89.8486 98.4598 89.6027C104.385 84.7202 105.898 81.388 104.534 75.3087C104.386 74.6502 104.111 74.0197 103.71 73.4772C103.192 72.7763 103.022 72.7652 103.32 74.0017Z" fill="#778EDC" stroke="black"/>
<path d="M108.37 77.6482C108.759 81.7239 108.373 83.9198 106.08 87.4712C106.029 87.5501 105.986 87.6123 106.029 87.6962C106.134 87.9032 106.474 87.8485 106.607 87.658C108.776 84.5499 109.33 82.3993 108.828 78.5132C108.771 78.0735 108.664 77.6379 108.483 77.2332C108.315 76.8572 108.265 76.8953 108.37 77.6482Z" fill="#2C3552" stroke="black"/>
<path d="M14.3889 79.3333C52.3075 121.5 67.8047 130.497 98 134L93.7 110.444C87.1208 103.908 83.5894 100.246 67.4222 93.5556C43.0226 90.0985 32.1592 80.7121 14.3889 74H12L14.3889 79.3333Z" fill="white" stroke="black"/>
<path d="M181.298 55L200.281 55.8081C198.916 58.7952 198.717 60.3533 199.983 62.8018L181.298 55Z" fill="#6A82CC" stroke="black"/>
<path d="M41 105.76C51.9565 106.834 54.7371 104.257 59 99" stroke="black"/>
</svg>
