<svg width="146" height="98" viewBox="0 0 146 98" fill="none" xmlns="http://www.w3.org/2000/svg">
<path d="M39.3079 53.7256C38.4941 53.6676 36.0294 53.7604 32.6812 54.5954C29.3678 61.96 29.1237 78.3244 54.6539 84.8655C46.3211 80.3715 25.7452 69.8792 39.3079 53.7256Z" fill="#256BC1" stroke="black"/>
<path d="M30.7693 9.39364C35.1696 41.0631 43.7955 57.601 65.0385 70.4109C73.143 73.2618 76.9037 74.1207 87.0193 71.6209C104.407 65.5042 109.348 57.9834 122.154 51.9156C132.287 46.8377 142.344 42.5579 145 48.4585C138.62 25.7044 115.587 2.99578 110.385 1.44238C107.644 1.48464 105.973 2.94394 103.052 5.49474L102.942 5.59086C98.4149 10.2326 95.1414 12.5187 88.2308 16.1349C75.97 16.757 65.1167 17.5954 50.1539 26.8518C48.0181 25.1777 46.1259 23.628 44.3737 22.1324C39.497 17.97 35.7054 14.2276 30.7693 9.39364Z" fill="#2B76C8"/>
<path d="M30.7693 9.39364C35.1696 41.0631 43.7955 57.601 65.0385 70.4109C73.143 73.2618 76.9037 74.1207 87.0193 71.6209C104.407 65.5042 109.348 57.9834 122.154 51.9156C132.287 46.8377 142.344 42.5579 145 48.4585C138.62 25.7044 115.587 2.99578 110.385 1.44238C107.644 1.48464 105.973 2.94394 103.052 5.49474M30.7693 9.39364C35.7054 14.2276 39.497 17.97 44.3737 22.1324M30.7693 9.39364C35.6526 14.1634 40.1076 18.3917 44.3737 22.1324M102.942 5.59086C98.4149 10.2326 95.1414 12.5187 88.2308 16.1349M102.942 5.59086L103.052 5.49474M102.942 5.59086C102.979 5.55865 103.016 5.52661 103.052 5.49474M88.2308 16.1349C98.0254 17.2934 112.696 19.2335 123.539 34.9759M88.2308 16.1349C75.97 16.757 65.1167 17.5954 50.1539 26.8518C48.0181 25.1777 46.1259 23.628 44.3737 22.1324M73.6924 40.853C62.9826 36.7506 54.1773 30.7288 44.3737 22.1324" stroke="black"/>
<path d="M65.2115 97.5001C63.3623 90.925 60.9931 88.2002 54.6538 84.8655" stroke="black"/>
<path d="M145 48.5193C143.601 56.9409 118.661 56.1162 104.5 63.0577" stroke="black"/>
<path d="M114.194 25.0021C117.532 24.6901 122.369 26.7942 129.425 31.579" stroke="black"/>
<path d="M103.461 63.75C106.682 62.4006 115.6 59.1619 125.5 57.0028C132.112 56.1594 145.267 53.2243 144.996 48.2314C143.809 44.408 133.841 42.1589 103.461 63.75Z" fill="#55BAF5" stroke="black"/>
<path d="M45.6613 53.7115C43.5315 50.6183 34.7995 39.7527 30.4306 9.40381C27.8816 13.312 30.4936 17.1907 9.48826 38.4807C2.68056 47.6538 -6.46944 65.4115 11.3921 63.0577C19.469 59.1923 37.6305 51.9115 45.6613 53.7115Z" fill="#4EB5F3" stroke="black"/>
<ellipse cx="2.01798" cy="3.00548" rx="2.01798" ry="3.00548" transform="matrix(-0.985981 0.16686 0.188263 0.982119 129.941 32.5962)" fill="black"/>
<ellipse cx="0.562108" cy="0.792233" rx="0.562108" ry="0.792233" transform="matrix(-0.96127 0.275608 0.275608 0.96127 129.102 34.1135)" fill="#D9D9D9"/>
<ellipse cx="2.42005" cy="3.1808" rx="2.42005" ry="3.1808" transform="matrix(-0.989217 0.146461 0.214029 0.976827 117.25 35.3655)" fill="black"/>
<ellipse cx="0.670264" cy="0.843581" rx="0.670264" ry="0.843581" transform="matrix(-0.969951 0.243299 0.311421 0.950272 116.24 36.9626)" fill="#D9D9D9"/>
</svg>
