<svg width="251" height="158" viewBox="0 0 251 158" fill="none" xmlns="http://www.w3.org/2000/svg">
<path d="M67.2405 86.1811C65.8333 86.0867 61.5714 86.2378 55.7818 87.5983C50.0524 99.5968 49.6303 126.258 93.7764 136.915C79.3676 129.593 43.7884 112.499 67.2405 86.1811Z" fill="black" stroke="black"/>
<path d="M52.4761 13.9544C60.0849 65.5513 75.0006 92.4953 111.733 113.366C125.747 118.01 132.25 119.41 149.742 115.337C179.808 105.371 188.352 93.1182 210.495 83.2324C228.017 74.9594 245.408 67.9866 250 77.6C238.969 40.5284 199.141 3.53084 190.144 1C185.405 1.06885 182.516 3.44638 177.466 7.60221L177.275 7.75883C169.447 15.3213 163.786 19.0459 151.837 24.9375C130.636 25.951 111.869 27.317 85.9953 42.3978C82.3022 39.6703 79.0301 37.1454 76.0003 34.7088C67.5677 27.9272 61.0115 21.83 52.4761 13.9544Z" fill="black"/>
<path d="M52.4761 13.9544C60.0849 65.5513 75.0006 92.4953 111.733 113.365C125.747 118.01 132.25 119.41 149.742 115.337C179.808 105.371 188.352 93.1182 210.495 83.2324C228.017 74.9594 245.408 67.9866 250 77.6C238.969 40.5284 199.141 3.53084 190.144 1C185.405 1.06885 182.516 3.44638 177.466 7.60221M52.4761 13.9544C61.0115 21.83 67.5677 27.9272 76.0003 34.7088M52.4761 13.9544C60.9201 21.7255 68.6236 28.6143 76.0003 34.7088M177.275 7.75883C169.447 15.3213 163.786 19.0459 151.837 24.9375M177.275 7.75883L177.466 7.60221M177.275 7.75883C177.339 7.70634 177.403 7.65414 177.466 7.60221M151.837 24.9375C168.773 26.8249 194.142 29.9858 212.89 55.6339M151.837 24.9375C130.636 25.951 111.869 27.317 85.9953 42.3978C82.3022 39.6703 79.0301 37.1454 76.0003 34.7088M126.697 65.2089C108.178 58.5252 92.9524 48.7143 76.0003 34.7088" stroke="black"/>
<path d="M112.032 157.5C108.835 146.788 104.738 142.348 93.7764 136.915" stroke="black"/>
<path d="M250 77.6992C247.581 91.4199 204.455 90.0764 179.969 101.386" stroke="black"/>
<path d="M196.731 39.3841C202.504 38.8758 210.868 42.3039 223.068 50.0994" stroke="black"/>
<path d="M178.173 102.514C183.743 100.315 199.162 95.0385 216.282 91.5208C227.714 90.1468 250.462 85.3649 249.993 77.2302C247.941 71.001 230.704 67.3367 178.173 102.514Z" fill="black" stroke="black"/>
<path d="M78.2269 86.1586C74.5441 81.119 59.4449 63.4165 51.8903 13.9712C47.4828 20.3385 51.9994 26.6578 15.6776 61.3441C3.90598 76.2892 -11.9159 105.221 18.9697 101.386C32.936 95.088 64.3403 83.2259 78.2269 86.1586Z" fill="black" stroke="black"/>
<ellipse cx="3.48396" cy="4.90758" rx="3.48396" ry="4.90758" transform="matrix(-0.987525 0.157463 0.199364 0.979925 223.96 51.7568)" fill="black"/>
<ellipse cx="0.967825" cy="1.29691" rx="0.967825" ry="1.29691" transform="matrix(-0.965395 0.260793 0.291119 0.956687 222.509 54.2288)" fill="black"/>
<ellipse cx="4.17962" cy="5.19725" rx="4.17962" ry="5.19725" transform="matrix(-0.99041 0.138162 0.226503 0.974011 202.015 56.2686)" fill="black"/>
<ellipse cx="1.15514" cy="1.38279" rx="1.15514" ry="1.38279" transform="matrix(-0.97319 0.230003 0.328516 0.944498 200.268 58.8706)" fill="black"/>
</svg>
