<svg width="398" height="202" viewBox="0 0 398 202" fill="none" xmlns="http://www.w3.org/2000/svg">
<path d="M95 96.5L1 105.5H67C67 105.5 52 114 70 114C88 114 125.663 131.203 155 133.5C185.282 142.887 246.607 143.577 338.5 135C344.686 155.329 353.402 164.285 369.5 180C368.104 138.22 370.171 114.477 397.5 69.5C371.807 86.3674 357.167 95.4493 338.5 123.5C309.799 122.023 295.158 119.228 275.5 105.5C252.726 87.3557 239.809 78.5088 216 69.5C190.539 48.5644 185.2 33.2495 188 1C154.304 23.8886 135.795 36.8955 123.5 69.5C112.506 85.3236 106.237 90.0784 95 96.5Z" fill="black" stroke="black"/>
<path d="M332.5 129.5C311.5 119 222.538 123.139 161.5 107H113H65.5C60.9368 107.557 59.1453 110.177 56 115C64.2015 116.415 68.7987 116.775 77 115C100.774 128.274 115.843 134.48 150.5 140C188.123 143.916 250.5 144 284 140C317.5 136 353.5 140 332.5 129.5Z" fill="black" stroke="black"/>
<path d="M125 65.0937C129.803 59.5948 132.782 57.7283 138.5 56.0937C147.081 54.7632 149.413 54.513 158.5 56.0937C167.587 57.6743 192.78 64.2218 210 73.5937L252.5 94.0937C266.765 104.58 271.298 106.019 279 108.094" stroke="black"/>
<path d="M217.5 201.5C185.587 169.462 170.551 150.794 162 113H184.5C186.089 148.923 195.775 168.004 217.5 201.5Z" fill="black" stroke="black"/>
<path d="M162 113.5C171.762 152.382 186.243 170.56 217 201C195.397 168.832 186.24 150.132 184.5 113.5" stroke="black"/>
<ellipse cx="134" cy="84" rx="9" ry="12" fill="black"/>
<path d="M134 76L135.347 81.1824H139.706L136.18 84.3853L137.527 89.5676L134 86.3647L130.473 89.5676L131.82 84.3853L128.294 81.1824H132.653L134 76Z" fill="black"/>
<path d="M260.5 167.5C240.369 165.491 231.942 161.203 226 143.5C252.645 143.025 267.934 142.255 296.5 139C292.359 142.836 289.762 144.725 284.5 147.5C270.54 149.646 266.686 155.755 260.5 167.5Z" fill="black" stroke="black"/>
<path d="M330.559 138.5C333 136.5 317.845 137.549 306.635 138.851C305.43 145.243 308.986 146.042 317.496 146.693C324.381 142.853 328.118 140.5 330.559 138.5Z" fill="black" stroke="black"/>
</svg>
