<svg width="234" height="146" viewBox="0 0 234 146" fill="none" xmlns="http://www.w3.org/2000/svg">
<path d="M171 71.8571C174.141 68.1826 180.621 60.4662 181.415 58.9964C182.407 57.1591 192.821 39.2459 216.626 36.49C215.965 48.279 211.766 73.2351 200.26 78.7468C202.409 84.4117 211.766 98.4973 232 109.521C220.593 114.114 192.424 118.523 171 99.4159C175.629 93.1387 182.109 78.8387 171 71.8571Z" fill="#2AB2E6" stroke="black"/>
<path d="M114 5.3157C119.667 3.3157 139.1 -0.0842986 171.5 2.3157C174.667 2.81569 181 5.01567 181 9.81567C180.833 18.8157 175 37.4902 175 37.4902C173 46.3157 173.7 67.6157 166.5 70.8157C162.167 65.649 153.5 53.5157 153.5 46.3157C153.5 37.3157 123 5.3157 114 5.3157Z" fill="#27A7E4" stroke="black"/>
<path d="M172.5 99.5844C162.833 98.9177 139.8 101.484 125 117.084C138.167 117.918 166.1 115.584 172.5 99.5844Z" fill="#2EA8FB" stroke="black"/>
<path d="M60 124.49C62.6667 123.657 70.8 121.69 82 120.49C83.3333 121.657 88.2 124.69 97 127.49C95.6667 132.823 89.9 143.79 77.5 144.99C72.5 142.49 62 134.89 60 124.49Z" fill="#2DABE8" stroke="black"/>
<path d="M4.19521 84.6263C8.02855 66.9597 18.8952 28.4263 31.6952 15.6263C44.4952 2.82634 89.3619 2.62634 110.195 4.12634C120.529 7.45967 145.495 25.1263 162.695 69.1263C169.695 71.6263 180.395 81.0263 167.195 98.6263C157.862 97.9597 134.795 101.126 117.195 119.126C96.8619 121.46 52.2952 125.426 36.6952 122.626C17.1952 119.126 4.19521 119.126 2.19521 103.126C7.52855 103.96 18.5952 104.626 20.1952 100.626C22.1952 95.6263 -8.80478 103.626 4.19521 84.6263Z" fill="#2DABE6" stroke="black"/>
<path d="M34 61.0876C38.6667 59.7543 48.7 59.7876 51.5 70.5876" stroke="black"/>
<path d="M83 92.6899C89.6667 89.6899 104.1 83.0899 108.5 80.6899C112.833 79.3565 119.9 84.0899 113.5 113.69C112.667 115.69 105.7 119.09 84.5 116.69C85.6667 110.357 87 96.6899 83 92.6899Z" fill="#27A7E4" stroke="black"/>
<path d="M31 16.9902C56.0204 14.9475 108.196 12.9475 118 14.9902C128.723 17.5436 143.735 23.7738 118 28.2677C97.0645 27.5868 55.4673 25.6241 47.2974 26.4411C37.085 28.9945 22.7876 35.2247 47.2974 39.7186C77.424 39.8888 137.677 40.4336 137.677 41.2506C137.677 42.272 148.911 40.74 153.507 49.9321C153.677 52.9961 152.383 59.022 145.847 58.6135C125.593 58.7837 84.5727 59.737 82.5302 62.1882C77.5942 64.0607 67.7222 68.112 67.7222 69.3376C65.5095 71.7208 63.1266 77.0998 71.2966 79.5511C82.0196 79.3808 104.078 78.9383 106.529 78.5297C109.593 78.019 122.359 77.5084 139.209 79.5511C149.932 83.1258 166.578 92.0115 147.379 98.9566C142.613 99.978 130.018 101.816 117.763 100.999H116.231C116.061 104.914 115.312 113.051 113.678 114.277C111.636 115.809 93.7639 117.341 84.5727 114.277C85.9344 106.957 87.2279 91.1944 81.509 86.7005C81.3388 96.5735 78.3431 117.954 67.7222 124.49C78.6155 123.299 100.708 121.12 101.934 121.937C103.466 122.958 118.274 121.937 119.806 120.916C121.337 119.894 152.996 95.3819 172.91 100.999C177.506 95.0415 183.939 80.6745 172.91 70.8696C170.697 71.2101 165.761 70.2568 163.719 63.7202C156.911 47.0383 137.371 11.7338 113.678 3.97156C104.317 2.09909 81.1005 -0.522358 63.1266 3.97156C53.9355 6.18449 33.0425 11.2707 31 16.9902Z" fill="#F97433" stroke="black"/>
<path d="M34.7734 122.694C45.3943 124.55 64.6997 124.942 67.2357 124.39C67.2376 124.352 68.8219 123.992 68.8311 123.947C68.8291 123.989 67.2449 124.349 67.2357 124.39C67.2357 124.39 71.7882 123.283 76.2668 113.488C70.9238 113.399 59.2571 113.99 55.3339 117.063C51.1478 119.069 41.1751 123.004 34.7734 122.694Z" fill="#FF662F"/>
<path d="M67.2357 124.39C64.6997 124.942 45.3943 124.55 34.7734 122.694C41.1751 123.004 51.1478 119.069 55.3339 117.063C59.2571 113.99 70.9238 113.399 76.2668 113.488C71.7882 123.283 67.2357 124.39 67.2357 124.39ZM67.2357 124.39C67.2376 124.352 68.8219 123.992 68.8311 123.947C68.8291 123.989 67.2449 124.349 67.2357 124.39Z" stroke="black"/>
<path d="M56 40.49C56.9861 40.4957 72.5 42.99 81.8612 87.5617" stroke="black"/>
<path d="M85 113.49C84.9766 116.352 80.0902 123.528 77.3161 123.743" stroke="black"/>
<path d="M39.0117 86.4814C34.845 84.9814 28.2289 77.9811 34.7292 66.9812C38.7292 60.9812 55.7294 61.1814 51.7294 79.9814C47.2294 81.4814 44.7292 81.9812 39.0117 86.4814Z" fill="white" stroke="black"/>
<path d="M39 86.4902C38.3333 86.8236 37 87.6902 37 88.4902" stroke="black"/>
<path d="M40.4092 63.8275C38.0758 65.9941 34.6092 71.4275 39.4092 75.8275C45.4092 81.3275 50.9092 71.3275 50.9092 70.3275C50.9092 69.3275 50.4091 61.8275 40.4092 63.8275Z" fill="black" stroke="black"/>
<path d="M85 93.9902C93.1531 89.3945 114.096 84.3488 115 85.4902" stroke="black"/>
<path d="M86 98.0652C94.857 96.8613 111 87.5654 116 88.5652" stroke="black"/>
<path d="M86 102.49C93.8947 99.0213 110.947 92.3959 116 93.6447" stroke="black"/>
<path d="M85 113.49C92.8947 112.334 109.947 110.125 115 110.542" stroke="black"/>
<path d="M85.2309 105.824C94.7344 104.72 114.193 101.707 116 98.4901" stroke="black"/>
<path d="M85 108.41C94.8246 108.624 114.579 108.538 115 106.49" stroke="black"/>
<path d="M73.5 123.99C81.6301 133.306 86.8117 138.113 88.5 140.49" stroke="black"/>
<path d="M77 123.49L91 138.49" stroke="black"/>
<path d="M80.5 122.99C90.4295 133.225 92.7318 136.206 92.5 136.49" stroke="black"/>
<path d="M89 124.49C91.5709 127.233 93.0557 128.697 95 132.49" stroke="black"/>
<path d="M83.5 122.99C88.1886 127.004 90.6771 129.321 94 133.99" stroke="black"/>
<path d="M64 124.49C67.6863 132.74 71.7275 137.072 81 144.49" stroke="black"/>
<path d="M67.5 124.49C72.6336 132.485 76.3236 136.616 84 143.49" stroke="black"/>
<path d="M70 124.49C73.58 128.256 80.6983 136.477 86 142.49" stroke="black"/>
<path d="M129.447 113.881L132.553 117.099" stroke="black"/>
<path d="M133 112.49L138 116.99" stroke="black"/>
<path d="M136 110.49L142.5 116.49" stroke="black"/>
<path d="M140 108.49L147.5 115.49" stroke="black"/>
<path d="M144 106.49L152.5 114.49" stroke="black"/>
<path d="M148.175 104.28L157.825 112.7" stroke="black"/>
<path d="M152.5 102.99L161.5 110.99" stroke="black"/>
<path d="M156.5 101.49L165 108.49" stroke="black"/>
<path d="M161.5 100.49L168 105.99" stroke="black"/>
<path d="M166.195 100.261L169.805 103.72" stroke="black"/>
<path d="M150 37.4902C162.209 15.9243 166.385 12.0273 174.543 2.89644" stroke="black"/>
<path d="M174.844 98.0229C198.477 101.897 202.885 100.335 219.035 101.049" stroke="black"/>
<path d="M126 10.4902C126.484 7.06487 127.723 5.34261 131 2.49023" stroke="black"/>
<path d="M133 16.4902C135.685 9.94037 138.032 6.74602 143 1.49023" stroke="black"/>
<path d="M139 22.4902C143.82 12.6769 146.92 8.17998 153 1.49023" stroke="black"/>
<path d="M144.947 29.833C153.908 14.2908 159.292 4.47498 164.054 1.79593" stroke="black"/>
<path d="M154.642 45.6071C166.047 27.7614 171.978 19.2237 180.814 9.49007" stroke="black"/>
<path d="M159 53.4901C164.425 44.0734 176.702 24.8775 178.001 25.5081" stroke="black"/>
<path d="M163.137 62.5826C166.925 55.5113 169.29 51.9818 173.863 46.3976" stroke="black"/>
<path d="M175 72.9902C192.986 54.3304 202.406 46.1355 216 42.4902" stroke="black"/>
<path d="M176.5 74.9902C190.229 62.7907 198.379 56.3904 215.5 47.4902" stroke="black"/>
<path d="M177.5 77.4902C193.134 63.9775 200.094 62.265 213.5 55.9902" stroke="black"/>
<path d="M178.5 79.9902C195.767 67.1405 200.791 67.0534 211 64.9902" stroke="black"/>
<path d="M179 82.4902C194.243 74.0262 199.763 72.3429 207 71.9902M179 84.9902C192.412 80.8005 197.892 79.173 200 78.9902" stroke="black"/>
<path d="M179 86.4902C190.735 84.4903 194.02 85.4903 202 82.4902" stroke="black"/>
<path d="M178 89.1139C190.134 90.7864 201.038 86.3955 204 85.4902" stroke="black"/>
<path d="M177.5 91.9901C196.919 92.7299 202.711 92.3779 208 90.9901" stroke="black"/>
<path d="M176.5 94.4901C192.348 97.0064 199.739 96.564 213.5 96.4901" stroke="black"/>
<path d="M174.03 99.2983C195.378 109.147 206.722 108.114 226.979 106.52" stroke="black"/>
</svg>
